<svg width="324" height="71" viewBox="0 0 324 71" fill="none" xmlns="http://www.w3.org/2000/svg">
<path d="M18.7702 35.5988C18.7702 32.8376 19.2667 30.0765 20.2598 27.4633L15.1452 24.505C11.9176 32.246 12.2155 40.9731 15.9397 48.4675L21.0047 45.5585C19.515 42.4522 18.7702 39.0501 18.7702 35.5988Z" fill="#FA0000"/>
<path d="M39.179 12.573V6.70569C30.3898 7.59319 22.4944 12.3758 17.6777 19.7224L22.7427 22.6314C26.5166 17.1092 32.4754 13.4112 39.179 12.573Z" fill="#FA0000"/>
<path d="M44.5913 58.6737V64.5411C52.7846 63.8508 60.2827 59.7584 65.298 53.2994L60.1834 50.3411C56.3102 55.0744 50.699 58.0327 44.5913 58.6737Z" fill="#FA0000"/>
<path d="M65.3474 35.2043C65.3474 38.7543 64.5529 42.255 62.9639 45.4105L68.0288 48.3196C71.9517 40.6772 72.2496 31.7529 68.873 23.864L63.7584 26.8223C64.8012 29.4848 65.3474 32.2953 65.3474 35.2043Z" fill="#FA0000"/>
<path d="M61.425 22.4341L66.5396 19.5251C61.574 12.1786 53.5296 7.44526 44.6411 6.65637V12.4744C51.3944 13.214 57.5518 16.8133 61.425 22.4341Z" fill="#FA0000"/>
<path d="M23.9344 50.1439L18.8198 53.0529C23.7358 59.512 31.085 63.6536 39.179 64.4425V58.5752C33.1705 57.8356 27.7083 54.8279 23.9344 50.1439Z" fill="#FA0000"/>
<path d="M42.8536 45.1147C38.4838 45.1147 34.6602 42.2057 33.5678 38.0147C32.4257 33.8237 34.263 29.4355 38.0369 27.2661C41.8108 25.0966 46.5778 25.7376 49.6565 28.7946L53.1821 25.2939C47.5213 19.673 38.3348 19.6237 32.5747 25.1953C26.8642 30.7668 26.7152 39.8883 32.2271 45.6571C37.7886 51.4258 46.975 51.623 52.7848 46.1994L49.2592 42.6987C47.5709 44.2272 45.2867 45.1147 42.8536 45.1147Z" fill="#FA0000"/>
<path d="M83.3071 32.8409C83.3071 24.0645 87.4286 19.7256 95.7212 19.7256C97.5089 19.7256 99.2468 19.9721 100.985 20.4652C102.673 20.9582 103.517 21.5499 103.517 22.2895C103.517 22.8318 103.219 23.5221 102.673 24.4096C102.077 25.2971 101.581 25.7409 101.134 25.7409C100.886 25.6915 100.588 25.5929 100.339 25.445C98.8496 24.8041 97.2606 24.5082 95.6716 24.5575C91.4011 24.5575 89.2162 27.3679 89.2162 32.9395C89.2162 38.511 91.3515 41.3214 95.5723 41.3214C97.3599 41.3214 99.0979 40.927 100.687 40.1874C100.985 40.0395 101.332 39.8915 101.63 39.8422C102.177 39.8422 102.623 40.286 103.12 41.1242C103.517 41.7159 103.716 42.3568 103.815 43.0471C103.815 44.0332 102.921 44.8221 101.084 45.3152C99.2965 45.8575 97.4096 46.1041 95.5226 46.1041C91.3515 46.1041 88.2728 45.0193 86.2865 42.8499C84.3003 40.7297 83.3071 37.377 83.3071 32.8409Z" fill="#203C53"/>
<path d="M106.943 44.7235V33.0381C106.993 31.7561 106.894 30.4249 106.695 29.1429C106.596 28.6992 106.496 28.2554 106.447 27.8117C106.447 27.4172 106.943 27.1214 107.936 26.9242C108.681 26.7763 109.426 26.6776 110.171 26.6283C110.519 26.579 110.866 26.6283 111.164 26.7763C111.363 26.8749 111.512 27.0228 111.561 27.22C111.661 27.4172 111.76 27.6144 111.81 27.7624C111.859 28.0089 111.959 28.2061 111.959 28.4526C112.008 28.7485 112.058 28.9457 112.108 29.0443C113.15 27.1707 114.491 26.2339 116.179 26.2339C116.974 26.2339 117.52 26.4311 117.818 26.8256C118.116 27.22 118.265 27.7131 118.265 28.2061C118.265 28.8471 118.116 29.5374 117.917 30.129C117.719 30.9179 117.421 31.3124 117.123 31.3124C116.875 31.3124 116.577 31.2631 116.328 31.1644C116.03 31.0658 115.683 31.0165 115.385 31.0165C114.144 31.0165 113.15 31.6082 112.406 32.8408V44.6742C112.406 45.4631 111.661 45.8575 110.171 45.8575H109.128C107.688 45.9068 106.943 45.5124 106.943 44.7235Z" fill="#203C53"/>
<path d="M118.613 27.2694C118.613 26.727 119.358 26.4805 120.897 26.4805H122.089C123.281 26.4805 123.976 26.727 124.175 27.2694L126.36 34.0735C126.558 34.7638 126.906 36.243 127.402 38.511H127.551C128.048 36.1444 128.396 34.6652 128.594 34.0735L130.779 27.2694C130.978 26.7763 131.623 26.4805 132.865 26.4805H133.759C135.248 26.4805 135.993 26.7763 135.993 27.2694C135.993 27.5159 135.943 27.7131 135.894 27.9103L127.402 52.6617C127.204 53.1548 126.509 53.4506 125.317 53.4506H124.671C123.182 53.4506 122.437 53.2041 122.437 52.6617C122.437 52.4152 122.486 52.218 122.586 52.0208L124.92 45.8576L118.812 27.9596C118.713 27.7131 118.663 27.5159 118.613 27.2694Z" fill="#203C53"/>
<path d="M138.724 52.2673V33.0382C138.774 31.7562 138.675 30.425 138.476 29.143C138.377 28.6993 138.277 28.2555 138.277 27.8118C138.277 27.4173 138.774 27.1215 139.767 26.9243C140.512 26.7764 141.257 26.6777 142.002 26.6284C142.349 26.5791 142.697 26.6284 142.995 26.7763C143.193 26.875 143.293 27.0229 143.392 27.2201C143.491 27.4173 143.541 27.5652 143.591 27.7625C143.64 27.9597 143.74 28.2062 143.74 28.4034C143.789 28.6993 143.839 28.8965 143.889 28.9458C144.335 28.1076 145.031 27.4173 145.875 26.9736C146.769 26.4312 147.811 26.1847 148.854 26.1847C150.89 26.1847 152.578 27.0722 153.869 28.8472C155.161 30.6222 155.806 33.0382 155.806 36.1444C155.806 39.2507 155.111 41.6666 153.72 43.4416C152.33 45.2166 150.443 46.1041 147.96 46.1041C146.62 46.1534 145.279 45.759 144.186 44.9701V52.2673C144.186 53.0562 143.442 53.4507 141.952 53.4507H140.909C139.469 53.4507 138.724 53.0562 138.724 52.2673ZM146.818 41.8145C149.102 41.8145 150.294 39.9409 150.294 36.243C150.294 32.5451 149.301 30.6715 147.265 30.6715C146.073 30.6715 145.08 31.4111 144.236 32.8409V41.075C145.031 41.568 145.924 41.8145 146.818 41.8145Z" fill="#203C53"/>
<path d="M167.127 41.8146L168.12 41.6667C168.418 41.6667 168.716 42.0118 168.915 42.7514C169.114 43.2444 169.213 43.7868 169.263 44.3292C169.263 45.5125 168.071 46.1535 165.687 46.1535C162.062 46.1535 160.275 44.1813 160.275 40.1875V30.8688H159.679C158.934 30.8688 158.586 30.2771 158.586 29.0445V28.4528C158.586 27.2201 158.984 26.6285 159.679 26.6285H160.275L160.771 23.1278C160.92 22.3389 161.566 21.9445 162.758 21.9445H163.9C165.141 21.9445 165.737 22.3389 165.737 23.1278V26.6285H167.574C168.319 26.6285 168.667 27.2201 168.667 28.4528V29.0938C168.667 30.3264 168.269 30.9181 167.574 30.9181H165.737V40.2861C165.787 41.2722 166.233 41.8146 167.127 41.8146Z" fill="#203C53"/>
<path d="M173.98 43.5401C172.44 41.8144 171.695 39.3492 171.695 36.1443C171.695 32.9394 172.44 30.4742 173.98 28.7978C175.519 27.1214 177.753 26.2339 180.683 26.2339C183.613 26.2339 185.847 27.0721 187.387 28.7978C188.876 30.4742 189.671 32.9394 189.671 36.1443C189.671 39.3492 188.926 41.8144 187.387 43.5401C185.847 45.2658 183.613 46.104 180.683 46.104C177.753 46.1533 175.519 45.2658 173.98 43.5401ZM177.257 36.1936C177.257 39.9408 178.399 41.8144 180.683 41.8144C182.967 41.8144 184.109 39.9408 184.109 36.1936C184.109 32.4464 182.967 30.5728 180.683 30.5728C178.399 30.5728 177.257 32.4464 177.257 36.1936Z" fill="#203C53"/>
<path d="M200.397 20.7612C200.397 20.2188 201.142 19.9723 202.681 19.9723H203.923C205.164 19.9723 205.909 20.3174 206.107 21.057L211.52 38.3139H211.669L217.23 21.057C217.479 20.3667 218.224 19.9723 219.415 19.9723H220.557C222.047 19.9723 222.792 20.2188 222.792 20.7612C222.792 21.0077 222.742 21.2049 222.693 21.4021L214.648 45.1181C214.45 45.6112 213.804 45.907 212.563 45.907H210.626C209.434 45.907 208.739 45.6605 208.541 45.1181L200.496 21.4021C200.447 21.2049 200.397 20.9584 200.397 20.7612Z" fill="#203C53"/>
<path d="M224.679 40.7299C224.679 40.0889 224.728 39.448 224.877 38.8563C225.026 38.2153 225.324 37.5744 225.721 37.032C226.168 36.3417 226.814 35.7994 227.509 35.4049C229.247 34.3695 231.879 33.8764 235.355 33.8764V32.6438C235.355 31.2632 234.411 30.5237 232.475 30.5237C231.084 30.5237 229.744 30.8195 228.502 31.4112C228.254 31.5591 228.006 31.6577 227.708 31.707C227.311 31.707 226.913 31.3126 226.466 30.573C226.069 30.0306 225.87 29.4389 225.771 28.798C225.771 28.157 226.466 27.5653 227.857 27.023C229.495 26.4806 231.184 26.1848 232.872 26.2341C238.185 26.2341 240.867 28.3049 240.867 32.3973V39.3C240.867 40.582 240.916 41.8639 241.065 43.1459L241.314 44.6744C241.314 45.0688 240.817 45.3646 239.824 45.5619C239.079 45.7098 238.334 45.8084 237.589 45.8577C237.242 45.907 236.894 45.8577 236.596 45.7098C236.398 45.6112 236.249 45.4139 236.199 45.2167C236.1 44.9702 236.05 44.8223 235.951 44.6744C235.901 44.4278 235.802 44.1813 235.802 43.9348C235.752 43.5896 235.702 43.3924 235.653 43.2938C235.107 44.1813 234.312 44.8716 233.369 45.266C232.375 45.7591 231.333 46.0549 230.191 46.0549C228.304 46.0549 226.913 45.5619 226.019 44.5757C225.126 43.6389 224.679 42.357 224.679 40.7299ZM230.141 40.1876C230.141 40.6313 230.29 41.0751 230.637 41.3709C231.035 41.716 231.581 41.8639 232.078 41.8146C232.773 41.8146 233.418 41.5681 233.964 41.1737C234.56 40.7299 235.057 40.1876 235.355 39.4973V37.4758C231.879 37.4758 230.141 38.3633 230.141 40.1876Z" fill="#203C53"/>
<path d="M252.536 41.8146L253.529 41.6667C253.827 41.6667 254.125 42.0118 254.324 42.7514C254.522 43.2444 254.622 43.7868 254.671 44.3292C254.671 45.5125 253.48 46.1535 251.096 46.1535C247.471 46.1535 245.684 44.1813 245.684 40.1875V19.1833C245.684 18.3944 246.428 18 247.918 18H248.961C250.451 18 251.195 18.3944 251.195 19.1833V40.2368C251.245 41.2722 251.692 41.8146 252.536 41.8146Z" fill="#203C53"/>
<path d="M263.61 41.8146L264.603 41.6667C264.901 41.6667 265.199 42.0118 265.398 42.7514C265.596 43.2444 265.695 43.7868 265.745 44.3292C265.745 45.5125 264.553 46.1535 262.17 46.1535C258.545 46.1535 256.757 44.1812 256.757 40.1875V19.1833C256.757 18.3944 257.502 18 258.992 18H260.035C261.524 18 262.269 18.3944 262.269 19.1833V40.2368C262.269 41.2722 262.716 41.8146 263.61 41.8146Z" fill="#203C53"/>
<path d="M269.42 43.5403C267.831 41.8146 267.036 39.3 267.036 36.0458C267.036 32.7917 267.831 30.3264 269.42 28.6993C271.009 27.0722 273.194 26.2833 275.974 26.2833C278.755 26.2833 280.791 27.1708 282.082 28.9458C283.373 30.7208 284.019 32.9889 284.019 35.8486C284.019 36.1444 283.77 36.5882 283.274 37.1799C282.777 37.7715 282.38 38.0674 282.132 38.0674H272.697C272.796 39.4479 273.243 40.4833 273.938 41.075C274.733 41.6667 275.676 42.0118 276.669 41.9625C277.762 41.9625 278.854 41.7653 279.848 41.3708C280.841 40.9764 281.387 40.7792 281.387 40.7792C281.784 40.7792 282.181 41.1243 282.628 41.8639C283.026 42.3569 283.224 42.9486 283.323 43.5896C283.323 44.3785 282.529 45.0687 280.99 45.5125C279.599 45.9562 278.11 46.2028 276.62 46.2521C273.442 46.1535 271.009 45.266 269.42 43.5403ZM278.705 34.2708C278.755 33.334 278.507 32.3972 278.06 31.559C277.613 30.8687 276.868 30.5236 276.074 30.5236C274.236 30.5236 273.144 31.7562 272.747 34.2708H278.705Z" fill="#203C53"/>
<path d="M285.855 27.2694C285.855 26.727 286.6 26.4805 288.14 26.4805H289.331C290.523 26.4805 291.218 26.727 291.417 27.2694L293.602 34.0735C293.85 34.7638 294.148 36.243 294.645 38.511H294.794C295.29 36.1444 295.638 34.6652 295.836 34.0735L298.021 27.2694C298.17 26.7763 298.865 26.4805 300.107 26.4805H301.001C302.49 26.4805 303.235 26.7763 303.235 27.2694C303.235 27.5159 303.186 27.7131 303.136 27.9103L294.645 52.6617C294.446 53.1548 293.751 53.4506 292.559 53.4506H291.914C290.424 53.4506 289.679 53.2041 289.679 52.6617C289.679 52.4152 289.729 52.218 289.828 52.0208L292.162 45.8576L286.054 27.9596C285.955 27.7131 285.905 27.5159 285.855 27.2694Z" fill="#203C53"/>
</svg>
