<svg width="206" height="80" viewBox="0 0 206 80" fill="none" xmlns="http://www.w3.org/2000/svg">
<path d="M0.226318 40.3363C0.226318 21.0993 13.274 5.01081 31.9319 1.02509C34.3989 0.497305 36.9207 0.297108 39.4608 0.22431C40.3014 0.20611 40.4659 0.497303 40.4476 1.26169C40.4111 3.22725 40.4476 3.22725 38.5471 3.30005C22.2466 3.90063 8.21211 15.2754 4.35627 31.0909C1.98063 40.8094 3.31464 50.0366 8.30348 58.7179C8.70551 59.4094 8.63241 59.6824 7.95627 60.0828C6.16541 61.1384 6.1654 61.1748 5.16033 59.3366C2.12683 53.7494 0.445608 47.7981 0.281141 41.4464C0.262866 40.9732 0.226318 40.5183 0.226318 40.3363Z" fill="#0098A8"/>
<path d="M80.2669 41.3555C80.2669 58.9909 67.3105 75.0247 48.7989 79.1196C46.277 79.6838 43.7004 79.9386 41.1055 79.9568C40.3014 79.9568 40.1552 79.7202 40.2283 78.974C40.4293 76.9721 40.3928 77.0085 42.3664 76.8811C55.9075 75.9711 66.2324 69.6376 72.6831 57.8443C79.2984 45.7598 78.8598 33.4386 72.1532 21.3905C71.8243 20.8081 71.8425 20.5715 72.4273 20.2075C74.3461 19.0427 74.3278 19.0245 75.406 20.9901C78.6405 26.9596 80.2303 33.3658 80.2669 41.3555Z" fill="#0098A8"/>
<path d="M167.306 19.4795C167.617 19.6433 167.782 19.7525 167.983 19.8435C169.792 20.6988 170.559 22.173 170.45 24.1204C170.34 26.0495 169.335 27.3417 167.562 28.0515C166.594 28.4337 165.589 28.6339 164.529 28.6339C161.769 28.6339 158.992 28.6157 156.232 28.6521C155.629 28.6521 155.465 28.4883 155.465 27.8877C155.483 22.5552 155.483 17.2227 155.465 11.8902C155.465 11.2896 155.629 11.1259 156.232 11.1259C158.882 11.1623 161.532 11.1259 164.163 11.1441C165.114 11.1441 166.027 11.3442 166.904 11.7628C169.974 13.2188 170.431 17.0225 167.763 19.1519C167.635 19.2247 167.507 19.3157 167.306 19.4795Z" fill="#0098A8"/>
<path d="M34.1615 40.0086C34.1615 37.2423 34.1615 34.4941 34.1615 31.7278C34.1615 31.3274 34.0884 30.927 34.728 30.9452C37.4874 31.0362 40.265 30.7814 43.0244 31.109C47.1726 31.6186 51.3757 34.9309 50.9919 40.9004C50.6995 45.2865 46.8985 48.9446 42.1838 49.1266C39.7899 49.2176 37.3777 49.1448 34.9655 49.1812C34.3077 49.1994 34.1432 48.9628 34.1615 48.3441C34.1615 45.5959 34.1615 42.7932 34.1615 40.0086Z" fill="#0098A8"/>
<path d="M30.3238 42.775C30.3238 43.7214 30.2689 44.6678 30.342 45.5959C30.4151 46.3967 30.1227 46.8881 29.4649 47.3249C26.0476 49.5817 22.4111 50.2368 18.537 48.7809C14.5897 47.2885 12.3968 43.2482 12.9633 38.8621C13.5116 34.658 16.8557 31.2728 20.9491 30.8179C23.873 30.4903 26.6507 30.8725 29.0811 32.7106C29.6111 33.111 29.6476 33.4022 29.1908 33.8208C29.0811 33.93 28.9897 34.0574 28.8984 34.1666C28.3684 34.8036 27.9664 35.659 27.2903 35.9866C26.5045 36.3687 25.9745 35.3314 25.2618 35.022C23.0872 34.0392 20.6567 34.2758 19.0121 35.75C17.276 37.2787 16.6547 39.9177 17.4771 42.2654C18.2263 44.413 20.0537 45.7415 22.4659 45.8689C23.1603 45.9053 23.8547 45.7961 24.5309 45.5959C26.3583 45.1046 26.7238 44.504 26.3948 42.6658C26.3217 42.2108 26.0476 42.2472 25.737 42.2472C24.8232 42.2472 23.9095 42.229 22.9958 42.2472C22.4842 42.2654 22.3197 42.1016 22.2831 41.5738C22.137 38.7165 22.1187 38.7165 24.9877 38.7165C26.5045 38.7165 28.0395 38.7347 29.5562 38.7165C30.1045 38.7165 30.3238 38.8621 30.2872 39.4445C30.2872 40.5365 30.3238 41.6648 30.3238 42.775Z" fill="#0098A8"/>
<path d="M142.655 28.9615C137.355 28.9615 133.353 25.0668 133.353 19.9163C133.353 14.7658 137.428 10.7983 142.728 10.7983C148.046 10.7801 152.139 14.7658 152.084 19.8981C152.029 25.0668 147.991 28.9797 142.655 28.9615Z" fill="#0098A8"/>
<path d="M115.262 22.5006C115.262 23.3742 115.189 24.266 115.28 25.1396C115.371 25.995 115.006 26.4681 114.33 26.9049C110.748 29.2163 106.965 29.7805 103.073 27.8695C99.5278 26.1406 97.8831 22.3004 98.6141 18.0781C99.2537 14.4382 102.397 11.4353 106.088 10.9439C108.902 10.5617 111.534 10.9621 113.909 12.6546C114.439 13.0368 114.677 13.3462 114.092 13.8922C113.617 14.3472 113.197 14.8932 112.813 15.421C112.393 16.0216 112.046 16.1672 111.388 15.6394C110.054 14.5656 108.446 14.1652 106.746 14.4746C103.95 14.9842 102.232 17.6231 102.598 20.7171C102.945 23.5926 105.229 25.5218 108.135 25.3762C108.592 25.358 109.049 25.3034 109.487 25.1942C111.351 24.7574 111.698 24.1932 111.442 22.3368C111.388 21.9182 111.168 21.8636 110.821 21.8636C109.944 21.8636 109.049 21.8454 108.171 21.8636C107.696 21.8818 107.532 21.6999 107.55 21.2267C107.587 20.4987 107.568 19.7707 107.55 19.0427C107.532 18.6423 107.696 18.5149 108.08 18.5149C110.273 18.5331 112.466 18.5331 114.659 18.5149C115.189 18.5149 115.243 18.7697 115.243 19.1883C115.243 20.3167 115.262 21.4087 115.262 22.5006Z" fill="#0098A8"/>
<path d="M169.079 62.3578C169.079 61.6116 169.079 60.8472 169.079 60.101C169.079 58.5905 169.061 57.0617 169.097 55.5511C169.116 54.7139 168.695 53.5128 169.28 53.1124C170.029 52.5846 171.217 52.985 172.222 52.9486C172.844 52.9304 172.643 53.4218 172.643 53.7493C172.661 58.3357 172.643 62.9038 172.643 67.4901C172.643 67.7995 172.624 68.0906 172.643 68.4C172.697 68.8914 172.515 69.1462 171.985 69.0916C171.948 69.0916 171.93 69.0916 171.893 69.0916C170.267 69.3828 169.171 68.8004 168.202 67.3809C166.466 64.8329 164.474 62.4306 162.592 59.9736C162.391 59.7188 162.263 59.4094 161.879 59.2274C161.715 59.555 161.77 59.8826 161.77 60.192C161.77 62.8674 161.733 65.5245 161.788 68.1998C161.806 68.946 161.55 69.1644 160.856 69.1098C160.198 69.0552 159.522 69.0734 158.846 69.1098C158.389 69.128 158.206 68.9824 158.206 68.491C158.224 63.5225 158.224 58.5358 158.206 53.5674C158.206 53.076 158.389 52.9122 158.846 52.9668C158.882 52.9668 158.9 52.9668 158.937 52.9668C161.514 52.894 161.514 52.894 163.104 54.9687C164.858 57.2619 166.612 59.555 168.366 61.8482C168.531 62.0484 168.714 62.2486 168.878 62.4488C168.933 62.4124 169.006 62.3942 169.079 62.3578Z" fill="#0098A8"/>
<path d="M133.317 62.467C133.317 60.7198 133.317 58.9726 133.317 57.2255C133.317 56.0061 133.335 54.8049 133.317 53.5856C133.317 53.1124 133.463 52.9304 133.938 52.9486C134.632 52.985 135.345 52.985 136.039 52.9486C136.679 52.9122 136.88 53.1124 136.862 53.7676C136.825 55.9151 136.844 58.0627 136.844 60.2284C136.844 62.9038 136.825 65.5609 136.862 68.2362C136.862 68.8732 136.716 69.0734 136.021 69.1462C134.395 69.3282 133.353 68.7822 132.421 67.3991C130.612 64.7783 128.584 62.3214 126.647 59.7916C126.5 59.6096 126.336 59.4458 126.062 59.1182C126.044 59.6096 126.007 59.919 126.007 60.2284C126.007 62.9038 125.989 65.5609 126.025 68.2362C126.025 68.8732 125.916 69.2008 125.185 69.128C124.307 69.037 123.193 69.4738 122.626 68.946C122.041 68.4182 122.444 67.2899 122.425 66.4345C122.407 62.2486 122.425 58.0627 122.407 53.8949C122.407 53.1852 122.608 53.0396 123.321 52.9486C125.112 52.712 126.263 53.349 127.286 54.8595C128.931 57.2983 130.813 59.555 132.604 61.9028C132.768 62.1212 132.933 62.3214 133.116 62.5216C133.17 62.4852 133.244 62.467 133.317 62.467Z" fill="#0098A8"/>
<path d="M190.259 28.6339C189.071 28.6339 187.901 28.6157 186.714 28.6339C186.33 28.6339 186.202 28.3973 186.092 28.1061C185.727 27.178 185.306 26.268 184.959 25.3216C184.795 24.8666 184.539 24.7392 184.082 24.7392C182.035 24.7574 180.007 24.7574 177.96 24.7392C177.503 24.7392 177.248 24.8666 177.083 25.3216C176.736 26.2498 176.334 27.178 175.95 28.1061C175.84 28.3973 175.731 28.6521 175.329 28.6521C174.178 28.6339 173.026 28.6521 171.747 28.6521C172.35 27.2144 172.898 25.9222 173.447 24.6118C175.256 20.3531 177.101 16.0944 178.892 11.8175C179.148 11.1987 179.459 10.9257 180.171 10.9803C181.049 11.0531 182.09 10.7619 182.766 11.1259C183.461 11.5081 183.57 12.6365 183.918 13.4373C185.946 18.1692 187.974 22.9011 189.985 27.633C190.094 27.9241 190.314 28.1971 190.259 28.6339Z" fill="#0098A8"/>
<path d="M53.6782 40.0997C53.6782 37.3152 53.6965 34.5124 53.6599 31.7279C53.6599 31.1637 53.7696 30.9453 54.4092 30.9453C58.5574 30.9635 62.6873 30.9635 66.8355 30.9453C67.4203 30.9453 67.6396 31.1091 67.603 31.7097C67.5482 32.4377 67.5482 33.1657 67.603 33.8937C67.6396 34.5124 67.3838 34.6398 66.8173 34.6398C64.1127 34.6216 61.3899 34.658 58.6853 34.6216C57.936 34.6034 57.6437 34.8036 57.7168 35.5862C57.7716 36.2414 57.7899 36.933 57.7168 37.5882C57.6437 38.3526 57.9726 38.4982 58.6487 38.48C60.933 38.4436 63.2173 38.4982 65.5015 38.4436C66.2873 38.4254 66.5249 38.6802 66.4518 39.4263C66.397 39.9905 66.397 40.5911 66.4518 41.1553C66.5431 41.9379 66.2873 42.2109 65.465 42.1927C63.2173 42.1381 60.9513 42.1927 58.7036 42.1563C57.9726 42.1381 57.6985 42.3383 57.7168 43.1209C57.7716 44.9044 57.7168 46.7062 57.735 48.4897C57.735 49.0357 57.5888 49.2541 57.0223 49.2177C56.1452 49.1813 55.2498 49.1813 54.3726 49.2177C53.7878 49.2541 53.6599 49.0175 53.6599 48.4897C53.6965 45.687 53.6782 42.9025 53.6782 40.0997Z" fill="#0098A8"/>
<path d="M193.383 61.0292C193.383 58.6633 193.402 56.2973 193.365 53.9314C193.347 53.2216 193.493 52.9304 194.297 52.9304C197.806 52.985 201.296 52.9668 204.805 52.9304C205.444 52.9304 205.7 53.0578 205.7 53.7676C205.682 56.0972 205.719 56.0972 203.379 56.0972C201.516 56.0972 199.67 56.1153 197.806 56.079C197.203 56.0608 196.965 56.2064 196.947 56.8797C196.929 59.3367 196.91 59.3367 199.396 59.3367C200.858 59.3367 202.32 59.3731 203.781 59.3185C204.494 59.2821 204.695 59.5369 204.622 60.1921C204.567 60.7017 204.567 61.2294 204.622 61.739C204.695 62.4124 204.403 62.5398 203.781 62.5398C201.808 62.5034 199.816 62.558 197.842 62.5216C197.185 62.5034 196.874 62.6672 196.947 63.377C197.002 63.9776 196.984 64.5964 196.947 65.197C196.91 65.7794 197.148 65.9067 197.678 65.9067C200.09 65.8885 202.484 65.9067 204.896 65.8885C205.499 65.8885 205.737 65.9977 205.737 66.6711C205.737 69.0917 205.773 69.0917 203.325 69.0917C200.346 69.0917 197.349 69.0735 194.37 69.1099C193.603 69.1281 193.31 68.9461 193.329 68.1089C193.42 65.7612 193.383 63.3952 193.383 61.0292Z" fill="#0098A8"/>
<path d="M154.131 69.0916C152.358 69.0916 152.358 69.0916 151.682 67.4537C150.896 65.5063 150.896 65.5063 148.813 65.5063C147.497 65.5063 146.2 65.5427 144.884 65.4881C144.226 65.4517 143.861 65.6883 143.715 66.3071C143.696 66.3981 143.642 66.4709 143.605 66.5619C142.545 69.1462 142.545 69.1098 139.767 69.1098C138.927 69.1098 138.982 68.8368 139.238 68.2181C141.211 63.6682 143.203 59.1183 145.067 54.5138C145.615 53.1488 146.273 52.6392 147.753 52.7302C148.795 52.803 149.325 53.0214 149.745 54.0224C151.664 58.6997 153.674 63.3224 155.666 67.9815C156.123 69.0734 156.123 69.0734 154.935 69.0734C154.679 69.0916 154.405 69.0916 154.131 69.0916Z" fill="#0098A8"/>
<path d="M184.192 69.3647C179.404 69.3647 175.786 65.7793 175.786 61.0474C175.786 56.3155 179.404 52.6756 184.155 52.6574C186.385 52.6392 188.413 53.1852 190.167 54.6594C190.643 55.0598 190.661 55.351 190.222 55.7332C190.149 55.7878 190.094 55.8606 190.039 55.9333C189.528 56.4975 189.126 57.3347 188.504 57.5713C187.865 57.8079 187.335 56.8979 186.714 56.5885C184.594 55.5148 182.145 55.9334 180.756 57.6441C179.185 59.5915 179.203 62.5398 180.811 64.469C182.218 66.1615 184.722 66.5801 186.787 65.4517C186.969 65.3425 187.152 65.2333 187.335 65.1241C188.614 64.2688 188.614 64.2688 189.729 65.3789C190.935 66.5801 190.935 66.5801 189.583 67.6539C188.029 68.8369 186.366 69.3647 184.192 69.3647Z" fill="#0098A8"/>
<path d="M99.0893 60.9746C99.0893 58.5723 99.1076 56.1881 99.0711 53.7858C99.0711 53.167 99.2173 52.9486 99.8751 52.9486C103.475 52.985 107.057 52.985 110.657 52.9486C111.315 52.9486 111.461 53.167 111.461 53.7858C111.461 56.2427 111.497 56.2427 108.994 56.2427C107.166 56.2427 105.339 56.2609 103.512 56.2245C102.909 56.2063 102.653 56.3337 102.653 57.0071C102.634 59.5733 102.598 59.5733 105.193 59.5733C106.691 59.5733 108.172 59.5915 109.67 59.5551C110.218 59.5369 110.401 59.7189 110.419 60.2831C110.511 62.8492 110.529 62.8492 107.971 62.8492C106.545 62.8492 105.102 62.8856 103.676 62.831C102.89 62.7946 102.598 62.9766 102.635 63.8138C102.708 65.3243 102.635 66.8531 102.671 68.3637C102.689 68.9097 102.507 69.1463 101.94 69.0917C101.008 69.0007 99.8386 69.4921 99.2172 68.8733C98.6873 68.3455 99.0711 67.1989 99.0711 66.3253C99.0711 64.56 99.0893 62.7582 99.0893 60.9746Z" fill="#0098A8"/>
<path d="M119.611 19.8252C119.611 17.1863 119.629 14.5474 119.593 11.9084C119.593 11.3442 119.721 11.0894 120.342 11.1258C121.128 11.1804 121.932 11.1804 122.718 11.1258C123.394 11.0712 123.522 11.3442 123.522 11.963C123.503 15.9305 123.503 19.9162 123.503 23.8838C123.503 25.2851 123.357 25.1213 124.801 25.1213C127.03 25.1213 129.241 25.1395 131.471 25.1031C132.111 25.0849 132.33 25.2851 132.293 25.9221C132.238 26.6501 132.275 27.3781 132.293 28.1061C132.293 28.4883 132.147 28.6339 131.763 28.6339C127.889 28.6339 124.033 28.6157 120.159 28.6339C119.501 28.6339 119.629 28.1971 119.629 27.8149C119.611 25.1577 119.611 22.4824 119.611 19.8252Z" fill="#0098A8"/>
<path d="M193.11 19.8617C193.11 17.1864 193.128 14.5292 193.091 11.8539C193.091 11.2169 193.329 11.0895 193.895 11.1259C194.663 11.1623 195.412 11.1805 196.18 11.1259C196.819 11.0895 197.002 11.2897 197.002 11.9267C196.965 15.3846 196.984 18.8425 196.984 22.3005C196.984 22.9374 197.02 23.5744 196.965 24.2114C196.911 24.9212 197.13 25.1578 197.879 25.1396C200.218 25.085 202.557 25.1396 204.915 25.1032C205.609 25.085 205.828 25.3034 205.774 25.9768C205.7 26.814 206.102 27.8877 205.609 28.4519C205.097 29.0343 204.001 28.6339 203.16 28.6339C200.236 28.6703 197.313 28.6521 194.389 28.6339C192.89 28.6339 193.128 28.8159 193.11 27.3235C193.091 24.8302 193.11 22.3369 193.11 19.8617Z" fill="#0098A8"/>
<path d="M117.911 61.0473C117.911 63.4679 117.893 65.8884 117.93 68.309C117.93 68.8914 117.784 69.128 117.162 69.0916C116.468 69.0552 115.755 69.0552 115.061 69.0916C114.531 69.1098 114.312 68.9642 114.312 68.3818C114.33 63.4497 114.33 58.5176 114.312 53.5673C114.312 53.0213 114.549 52.9121 115.024 52.9303C115.719 52.9485 116.431 52.9849 117.126 52.9303C117.784 52.8757 117.948 53.1669 117.93 53.7675C117.893 56.2062 117.911 58.6268 117.911 61.0473Z" fill="#0098A8"/>
<path d="M99.0891 40.8458C99.0891 38.9713 99.1074 37.0785 99.0709 35.204C99.0526 34.567 99.2719 34.3486 99.8932 34.385C101.684 34.4942 103.493 34.1848 105.266 34.5852C108.391 35.2768 110.456 37.9703 110.291 41.0642C110.108 44.2674 107.842 46.7607 104.681 47.1611C103.018 47.3795 101.337 47.2157 99.6556 47.2703C99.0343 47.2885 99.0709 46.8881 99.0709 46.4877C99.0891 44.595 99.0891 42.7204 99.0891 40.8458Z" fill="#0097A7"/>
<path d="M138.598 40.591C139.274 40.591 139.932 40.6092 140.608 40.591C141.065 40.5728 141.266 40.7184 141.248 41.2098C141.229 42.5202 141.229 43.8124 141.248 45.1227C141.248 45.4139 141.175 45.6505 140.937 45.8325C138.836 47.3977 136.496 47.9437 133.975 47.1611C131.654 46.4331 130.32 44.7588 129.808 42.411C129.187 39.5355 130.356 36.5689 132.695 35.0948C134.87 33.7116 138.196 33.8754 140.279 35.4588C140.535 35.659 140.882 35.8046 140.517 36.2231C140.224 36.5507 140.042 36.5325 139.694 36.2959C137.081 34.5124 134.194 34.6944 132.239 36.7509C130.302 38.7893 130.155 42.4474 131.946 44.7224C133.536 46.7425 136.697 47.1975 139.274 45.8507C139.987 45.4685 140.407 45.0318 140.297 44.1582C140.206 43.503 140.261 42.8296 140.279 42.1562C140.297 41.6648 140.096 41.5192 139.64 41.5374C138.635 41.5556 137.629 41.5374 136.624 41.5374C136.277 41.5374 135.948 41.5738 135.948 41.046C135.966 40.5546 136.295 40.6274 136.588 40.6274C137.246 40.5729 137.922 40.591 138.598 40.591Z" fill="#0098A8"/>
<path d="M187.426 47.2521C187.079 47.3067 186.86 47.1611 186.713 46.8335C186.494 46.3057 186.165 45.8143 186.019 45.2502C185.672 43.8852 184.831 43.5394 183.479 43.6486C181.779 43.776 180.08 43.7032 178.362 43.6668C177.869 43.6668 177.595 43.8124 177.394 44.2856C177.083 45.0682 176.699 45.8325 176.352 46.5969C176.297 46.7425 176.224 46.8699 176.151 46.9973C175.932 47.3795 175.53 47.3249 175.274 47.1793C174.927 46.9973 175.256 46.7061 175.365 46.4877C176.59 43.8124 177.832 41.1552 179.075 38.4799C179.641 37.2423 180.244 36.023 180.793 34.7672C180.939 34.4214 181.103 34.2212 181.524 34.2212C181.944 34.2212 182.108 34.4214 182.255 34.7672C184.082 38.7347 185.928 42.684 187.773 46.6333C187.938 47.0519 187.974 47.3249 187.426 47.2521Z" fill="#0098A8"/>
<path d="M69.997 13.51C69.9422 13.783 69.7229 13.9104 69.5401 14.0742C67.9686 15.4938 67.9686 15.4938 66.4884 14.0196C65.0447 12.5818 63.5097 11.2533 61.8285 10.0885C61.2985 9.7063 61.1889 9.4151 61.5909 8.85092C63.0528 6.77616 62.5777 6.88535 64.5513 8.34132C66.3605 9.6881 68.0051 11.2169 69.5401 12.8548C69.7412 13.055 69.9605 13.2188 69.997 13.51Z" fill="#2A1F41"/>
<path d="M33.7958 77.1359C33.3389 79.8658 33.7409 79.6656 31.2922 79.1378C29.1176 78.6829 27.0161 77.9731 24.9511 77.1541C24.3115 76.8993 24.1287 76.6263 24.4211 75.9347C25.2435 74.0602 25.2069 74.042 27.1622 74.77C29.081 75.4797 31.0364 76.0257 33.0465 76.4261C33.5216 76.5353 33.9419 76.6627 33.7958 77.1359Z" fill="#2A1F41"/>
<path d="M47.7756 0.770368C49.7492 1.13436 51.7045 1.62575 53.5867 2.29914C54.336 2.55393 55.0669 2.88152 55.7979 3.15452C56.2182 3.31831 56.3278 3.55491 56.1817 3.9917C55.4507 6.21205 55.469 6.21205 53.2761 5.39307C51.4487 4.71968 49.5847 4.13729 47.6659 3.8097C46.8253 3.6641 46.5877 3.26371 46.7705 2.49933C46.8619 2.11714 46.8984 1.71675 46.9898 1.33456C47.0811 0.934166 47.337 0.715769 47.7756 0.770368Z" fill="#2A1F41"/>
<path d="M19.1765 70.6204C19.1948 70.9116 17.9156 72.8044 17.7146 72.8772C17.4405 72.9863 17.2395 72.8043 17.0567 72.6769C14.7542 71.0754 12.6892 69.2008 10.7704 67.1625C10.7339 67.1261 10.6608 67.0715 10.6608 67.0169C10.3867 65.9249 11.5562 65.8339 11.9583 65.1969C12.1776 64.8693 12.5248 64.6145 12.9268 65.0695C14.7177 67.0169 16.7278 68.7276 18.8659 70.2928C19.0303 70.3838 19.1217 70.5476 19.1765 70.6204Z" fill="#2A1F41"/>
<path d="M197.148 40.8094C197.148 38.9349 197.148 37.0603 197.148 35.1857C197.148 34.8036 197.075 34.385 197.715 34.4032C198.318 34.4214 198.19 34.8399 198.19 35.1857C198.19 38.5709 198.226 41.9742 198.171 45.3593C198.153 46.1601 198.372 46.3967 199.177 46.3785C201.095 46.3239 203.014 46.3603 204.915 46.3603C205.225 46.3603 205.7 46.1783 205.719 46.7971C205.737 47.3977 205.298 47.2703 204.951 47.2703C202.612 47.2703 200.273 47.2521 197.934 47.2885C197.294 47.2885 197.112 47.0701 197.112 46.4513C197.185 44.5586 197.148 42.684 197.148 40.8094Z" fill="#0095A4"/>
<path d="M165.662 41.2463C165.662 43.0116 165.662 44.7588 165.662 46.5241C165.662 46.8881 165.717 47.2703 165.132 47.2703C164.547 47.2703 164.62 46.9063 164.62 46.5241C164.62 43.1026 164.602 39.6811 164.638 36.2414C164.638 35.477 164.437 35.2404 163.67 35.295C162.738 35.3678 161.788 35.3132 160.837 35.3132C160.527 35.3132 160.143 35.4042 160.106 34.8764C160.088 34.3486 160.454 34.4032 160.783 34.4032C163.67 34.4032 166.557 34.4032 169.463 34.4032C169.755 34.4032 170.084 34.3304 170.102 34.8218C170.121 35.3314 169.773 35.3132 169.426 35.3132C168.385 35.3132 167.361 35.3314 166.32 35.3132C165.808 35.295 165.625 35.477 165.643 35.9866C165.68 37.7337 165.662 39.4991 165.662 41.2463Z" fill="#0096A6"/>
<path d="M150.367 40.7913C150.367 38.9167 150.367 37.0422 150.367 35.1494C150.367 34.8218 150.239 34.4032 150.842 34.3668C151.481 34.3486 151.408 34.749 151.408 35.1494C151.408 38.9349 151.408 42.7204 151.408 46.506C151.408 46.8882 151.445 47.234 150.878 47.234C150.312 47.234 150.367 46.87 150.367 46.4878C150.367 44.6132 150.367 42.7022 150.367 40.7913Z" fill="#0093A3"/>
<path d="M119.794 40.8094C119.794 38.9349 119.794 37.0603 119.794 35.1858C119.794 34.8582 119.629 34.4214 120.251 34.4032C120.854 34.385 120.762 34.7854 120.762 35.1312C120.762 38.9349 120.762 42.7568 120.762 46.5605C120.762 46.8881 120.835 47.2521 120.306 47.2521C119.721 47.2703 119.794 46.8699 119.794 46.5241C119.794 44.6132 119.794 42.7204 119.794 40.8094Z" fill="#0098A8"/>
<path d="M161.861 21.4815C162.884 21.4815 163.652 21.4451 164.401 21.4815C165.717 21.5543 166.502 22.2458 166.557 23.265C166.594 24.3024 165.863 25.0668 164.529 25.1578C162.957 25.2488 161.367 25.1942 159.796 25.2306C159.412 25.2306 159.248 25.0668 159.266 24.6846C159.266 24.5936 159.266 24.5026 159.266 24.4116C159.302 23.4834 158.882 22.2822 159.412 21.6817C159.979 21.0629 161.203 21.5725 161.861 21.4815Z" fill="white"/>
<path d="M161.733 14.5839C162.391 14.5839 163.067 14.5293 163.725 14.6021C164.876 14.7113 165.497 15.33 165.534 16.2582C165.57 17.2592 165.059 17.8416 163.889 18.0782C162.5 18.3512 161.112 18.151 159.723 18.2056C159.357 18.2238 159.266 18.0054 159.266 17.696C159.266 16.8224 159.284 15.9488 159.266 15.0753C159.266 14.6567 159.467 14.5657 159.832 14.5657C160.472 14.5839 161.112 14.5657 161.733 14.5657V14.5839Z" fill="white"/>
<path d="M38.1816 40.0632C38.1816 38.4799 38.1816 36.9147 38.1816 35.3313C38.1816 34.9309 38.2182 34.6216 38.7481 34.6398C40.0273 34.6943 41.3065 34.5306 42.5674 34.7854C45.2902 35.3131 46.9166 37.6063 46.7339 40.6456C46.5694 43.3574 44.5593 45.3775 41.873 45.5231C40.8496 45.5777 39.808 45.5049 38.7664 45.5413C38.2547 45.5595 38.1633 45.3229 38.1633 44.8861C38.1816 43.2664 38.1816 41.6648 38.1816 40.0632Z" fill="white"/>
<path d="M147.972 19.9527C147.972 23.0648 145.706 25.3762 142.691 25.358C139.749 25.3398 137.428 22.9192 137.428 19.8799C137.428 16.8224 139.749 14.4018 142.709 14.42C145.688 14.42 147.972 16.8224 147.972 19.9527Z" fill="white"/>
<path d="M180.994 15.7667C181.25 16.3309 181.414 16.6767 181.56 17.0407C182.127 18.4057 182.675 19.7706 183.296 21.2994C181.853 21.2994 180.537 21.2994 179.221 21.2994C178.764 21.2994 178.837 21.0264 178.965 20.7534C179.605 19.1337 180.263 17.5503 180.994 15.7667Z" fill="white"/>
<path d="M145.396 62.3032C146.109 60.5924 146.767 58.9908 147.498 57.2073C148.192 58.8634 148.795 60.3376 149.398 61.7936C149.526 62.103 149.508 62.3032 149.087 62.3032C147.9 62.285 146.712 62.3032 145.396 62.3032Z" fill="white"/>
<path d="M100.094 40.773C100.094 39.1897 100.113 37.6245 100.076 36.0411C100.058 35.4223 100.277 35.2585 100.862 35.2949C102.251 35.3859 103.658 35.1494 105.047 35.4951C107.806 36.1867 109.487 38.5527 109.213 41.3918C108.976 44.0308 106.874 46.0691 104.151 46.2511C103.055 46.3239 101.958 46.2693 100.862 46.3421C100.186 46.3785 100.058 46.0873 100.076 45.4867C100.113 43.9398 100.094 42.3564 100.094 40.773Z" fill="white"/>
<path d="M181.506 35.4224C182.584 37.7883 183.607 40.0087 184.612 42.229C184.813 42.6658 184.63 42.7568 184.228 42.7568C182.401 42.7568 180.574 42.7568 178.746 42.7568C178.344 42.7568 178.161 42.6476 178.362 42.229C179.386 40.0269 180.409 37.8065 181.506 35.4224Z" fill="white"/>
</svg>
