<?xml version="1.0" encoding="utf-8"?>
<!-- Generator: Adobe Illustrator 23.0.3, SVG Export Plug-In . SVG Version: 6.00 Build 0)  -->
<svg version="1.1" id="Layer_1" xmlns="http://www.w3.org/2000/svg" xmlns:xlink="http://www.w3.org/1999/xlink" x="0px" y="0px"
	 viewBox="0 0 3053.7 1256" style="enable-background:new 0 0 3053.7 1256;" xml:space="preserve">
<style type="text/css">
	.st0{fill:#31ADDE;}
	.st1{fill:#444746;}
	.st2{fill:#828584;}
</style>
<g>
	<g>
		<path class="st0" d="M653,99.5"/>
		<path class="st0" d="M101.2,574.9c2.8-24.6,2.9-26.4,3.9-32.7c1.9-12.6,5.9-35.6,14.3-63.6c3.8-12.7,8.1-25.3,12.9-37.6
			c11.8-30.9,26-60.6,43.2-88.9c14.6-24.1,31-46.8,49.2-68.2c14.2-16.8,29.4-32.6,45.8-47.4c18.3-16.5,37.4-31.8,57.7-45.8
			c17.6-12.2,36.1-23,55.1-33c23.1-12.2,47.1-22.2,71.7-30.9c13.3-4.7,34.4-11.2,60.8-16.8c28.8-6.1,51.7-8.4,62-9.3
			c36.6-3.2,64.7-1.5,85-0.2c23.1,1.5,38.6,3.7,42.6,4.3c4.3,0.6,22.2,2.7,45.4,9c11.7,3.2,23.5,5.9,35,9.8
			c28.5,9.5,56.4,20.3,82.9,34.5c29.2,15.6,57.3,32.8,83,53.9c9.3,7.6,18.6,15.2,27.6,23.2c8.1,7.2,7.9,7.5,0.3,14.8
			c-13.2,12.7-26.5,25.2-39.6,37.9c-2.7,2.6-4.4,2.3-7.1-0.1c-23.4-21.1-48.5-39.8-75.7-55.8c-24.4-14.4-49.9-26.4-76.5-36
			c-15.9-5.8-31.9-11.3-48.5-14.9c-12.1-2.7-24.5-4.2-36.7-6.7c-19.1-4-38.7-4.9-58-5.6c-19.9-0.7-40,1.3-60,3.4
			c-11.6,1.2-23.1,2.6-34.4,4.8c-11.8,2.2-23.5,5.7-35.1,8.8c-34.8,9.4-68,22.6-99.6,40c-27.2,15-52.5,32.4-76.3,52.4
			c-12.5,10.5-24.1,21.9-35.5,33.6c-16.3,16.9-31,35.1-44.4,54.4c-14.9,21.5-27.9,44.1-39,67.8c-6.4,13.6-12.2,27.4-17,41.5
			c-7.9,23.4-14.2,47.4-18.5,71.8c-5.8,33.4-7.3,67.1-6.1,100.9c0.1,1.8,0.5,3.6,0.6,5.5c0.5,7.2-0.1,8.2-7.4,8.4
			c-13,0.3-25.9,1.4-38.8,2.3c-5.1,0.4-8.6,0.4-13.5,0.8c-11.3,1-12.5,2.9-12.9,1.3C97.3,655.4,94.7,633.2,101.2,574.9z"/>
		<path class="st0" d="M570.4,1148.4c-15.1-0.9-33.9-4.3-55.6-9c-36.5-7.9-63.9-17.9-76-22.4c-24.1-9-47.4-20-69.8-32.7
			c-25.1-14.2-48.8-30.3-71.3-48.2c-20.9-16.6-40.5-34.7-58.5-54.3c-19.6-21.3-37.5-44-53.2-68.4c-11.9-18.5-23.1-37.3-32.6-57.1
			c-12.8-26.7-23.8-54.1-32-82.6c-5.4-18.7-9.5-37.6-13.3-56.7c-0.9-4.6-1.3-9.2-2.3-13.8c-1-4.4,0.9-6.3,4.9-6.7
			c8.3-0.7,16.6-1.7,24.8-2.1c11.5-0.5,22.9-1.7,34.2-3c4-0.5,5.6,0.6,6.2,4.8c2.5,16.9,6.1,33.6,10.7,50.1
			c4.7,16.7,10.4,32.9,16.7,49.1c6.4,16.6,14.4,32.5,22.7,48.2c11.1,20.9,24.3,40.4,38.6,59.1c11.7,15.3,24.6,29.6,38.1,43.4
			c19.9,20.4,41.9,38.5,65.3,54.6c18.9,13,38.6,24.5,59.3,34.6c18,8.8,36.5,16.1,55.3,22.6c19.2,6.6,38.8,11.6,58.8,15.2
			c16.4,3,32.8,4.9,49.4,6.2c15.9,1.3,31.9,2.4,47.8,1.6c32.6-1.6,64.8-5.2,96.6-13.4c25.4-6.5,50.1-14.6,74-25.2
			c21.6-9.5,42.4-20.7,62.3-33.5c15.1-9.7,29.5-20.4,43.7-31.3c5.6-4.4,11-9.2,16.1-14.1c2.8-2.7,5.1-2.9,7.7-0.3
			c14.5,14.4,29,28.9,43.5,43.3c2.1,2.1,1.4,3.7-0.4,5.5c-8.7,8.7-18.4,16.4-27.9,24.2c-8.4,7-17.3,13.4-26.3,19.7
			c-42.3,29.5-87.9,52.3-136.8,68.8c-30.9,10.4-55.9,15.3-67.4,17.5c-19.7,3.7-37.1,6.3-51.3,6.8
			C638.6,1150.3,604.4,1150.3,570.4,1148.4z"/>
		<path class="st0" d="M626.3,278.6c-23.5,0.3-46.7,3.1-69.8,7.5c-30,5.7-58.2,16.1-85.5,29.4c-20.9,10.2-40.3,23-58.6,37.5
			c-11.9,9.4-23.3,19.3-33.9,30.2c-16.4,16.8-30.7,35.3-43.6,55c-12,18.3-21.8,37.6-30,57.8c-10.6,26-17.7,52.9-21.6,80.7
			c-2.8,20.3-4.5,40.7-3.5,61.2c1,19.4,2.9,38.8,7.5,57.7c2,8.1,3.6,16.2,5.6,24.3c0.6,2.6-0.6,3.8-2.6,4.6
			c-13.7,4.9-27.4,10.2-41.3,14.7c-6,2-11.9,4.1-17.7,6.6c-2.9,1.2-4.6,0.2-5.3-2.5c-3.4-13-7.5-25.9-9.8-39.1
			c-2.3-13.2-4.4-26.5-5.4-40c-1.1-14.9-2.1-29.9-1.8-44.9c0.6-25.5,2.9-50.7,8-75.7c5.4-26.8,13.1-52.9,23.6-78.2
			c10.5-25.4,23.6-49.4,38.9-72.3c17.8-26.5,38.1-50.8,61.4-72.6c35.1-32.7,74.7-58.7,118.7-77.9c19.1-8.4,38.7-15.1,58.9-20.4
			c17.9-4.7,35.9-8.6,54.2-10.8c23.8-2.8,47.7-4,71.7-2.8c20,1,39.8,3.1,59.4,6.6c12.7,2.3,25.3,5.7,37.7,9.1
			c26.2,7.2,51.2,17.7,75.4,30c17.8,9,34.5,19.8,50.9,31.2c22.3,15.6,42.5,33.5,61.4,53c3.1,3.2,4.7,1.9,7.2-0.5
			c23.3-23.1,46.7-46.1,70-69.2c3.6-3.5,5.2-3.4,8.5,0.4c8.9,10.5,18.4,20.5,26.7,31.6c6.9,9.3,13.6,18.8,20.5,28.2
			c2.5,3.4,1.7,5.9-1.8,7.7c-10.7,5.6-20.7,12.5-31.1,18.6c-11.3,6.6-22.3,13.7-33.4,20.6c-15.1,9.3-30.4,18.3-45.6,27.5
			c-11.6,7.1-23.3,14.1-34.8,21.5c-3.7,2.4-5.8,1.7-8.2-1.6c-24.9-34.6-55.3-63.7-90.8-87.2c-22.5-15-46.6-27-72-36.3
			c-23.1-8.4-46.9-14.3-71.4-17.4C657.5,280.3,642,278.6,626.3,278.6z"/>
		<path class="st0" d="M624.4,388.4c-14.1-0.8-29.9,1.3-45.3,4.5c-20.3,4.2-39.8,11.2-58.6,20.6c-24.9,12.4-46.7,28.6-65.8,48.6
			c-14.3,14.9-26.2,31.6-36.2,49.9c-9.5,17.3-16.7,35.5-21.6,54.5c-6.4,24.8-8.8,50-6.6,75.6c1.2,14.1,3,28.1,6.8,41.7
			c0.8,2.8-0.5,4.5-3.1,5.4c-19.9,6.5-39.8,13-59.7,19.7c-3.7,1.3-5-0.8-5.7-3.5c-1.6-6.4-3.3-12.9-4.4-19.4
			c-4.1-22.8-7.1-45.8-5.9-68.9c0.8-15.2,1.9-30.4,4.6-45.6c3.1-17.4,7.6-34.4,13.4-51c6.2-17.8,14.5-34.7,24-50.9
			c11.7-19.8,25.5-38,41.3-54.9c32.7-35.1,71.5-60.7,116.2-77.8c21.9-8.3,44.4-13.8,67.6-16.8c15.5-2,31.1-3.6,46.7-2.8
			c16.2,0.8,32.4,2.2,48.5,5c19.6,3.3,38.6,8.6,57,15.8c20.5,8,39.8,18.1,58.3,30.2c22.4,14.6,42,32.2,59.9,51.7
			c19.5,21.3,35.4,45.2,47.9,71.4c7.4,15.5,13.6,31.4,18.4,47.9c5.3,18.4,8.5,37.1,10.7,56.2c2.7,24.5,1.1,48.9-1.5,73.1
			c-1.4,13.2-4.5,26.2-8.2,39c-1.6,5.7-2.5,6.2-8.2,4.1c-14.4-5.1-28.8-10.4-43.1-15.6c-4.4-1.6-8.7-3.3-13.1-4.6
			c-3.3-1-4.1-2.9-3.4-6.1c2.6-11.2,4.8-22.4,6.1-33.8c2.2-19.6,1.8-39-0.8-58.6c-2.6-19.5-7.6-38.2-14.9-56.2
			c-7.3-18.2-17.1-35.1-28.7-51.1c-14.4-19.7-31.2-36.5-50.7-51c-11.8-8.8-24.2-16.5-37.4-22.7c-23.6-11-48.1-18.9-74.3-21.6
			C645,389.3,635.6,388.4,624.4,388.4z"/>
		<path class="st0" d="M416.3,733.9c0.1,3.2-2,4-3.8,5.1c-19.1,11.7-38.2,23.4-57.4,35.1c-8.9,5.5-17.7,11.2-26.8,16.3
			c-4.1,2.3-4.1,4.5-2,7.9c8,13.1,16.2,25.9,25.5,38.1c11.9,15.7,25.2,30.1,39.6,43.5c19.3,17.9,40.7,33.1,63.5,46.2
			c19.7,11.3,40.4,20.4,61.8,27.6c18.3,6.1,37.1,10.2,56.1,13.3c24.5,4.1,49.1,4.3,73.7,3.5c16.3-0.6,32.4-3.1,48.4-6.2
			c24.7-4.8,48.5-12.5,71.4-22.7c28.4-12.6,54.6-28.8,78.6-48.5c23-18.9,43.2-40.4,60.9-64.3c2.6-3.5,4.8-3.2,7.9-1.2
			c15.5,9.9,31.1,19.9,46.8,29.6c23.8,14.9,47.7,29.7,71.5,44.5c8.2,5.1,16.5,10,24.6,15.1c5.3,3.4,5.3,3.9,1.8,9.3
			c-13.6,20.8-29.8,39.5-46.3,57.9c-4,4.5-5.6,4.6-9.7,0.1c-20.3-21.8-41.9-42.3-61.8-64.5c-9-10-8.8-10-18.3-0.7
			c-21.5,21.2-44.8,40.1-70.1,56.6c-34.1,22.3-70.8,38.8-109.8,50.1c-20.9,6.1-42.2,10.3-63.9,13c-19.9,2.4-39.7,4-59.7,3.5
			c-24-0.5-47.7-3.2-71.3-7.6c-23.4-4.4-46.2-10.9-68.5-19.3c-13.6-5.1-26.9-10.7-39.8-17.3c-28.3-14.5-55-31.5-79.3-52.1
			c-12.6-10.6-24.9-21.5-36.2-33.6c-13.9-14.8-27.2-30.2-38.6-46.9c-16.2-23.6-30.8-48.2-41.5-74.8c-1.6-3.9-3.5-7.5-4.8-11.5
			c-0.9-2.7-0.3-3.9,2.3-4.8c13-4.5,26-9.2,39-13.7c19.6-6.9,39.3-13.6,58.9-20.5c21.7-7.5,43.4-15,65-22.6c3.2-1.1,5.2-0.5,6.4,2.5
			C412.4,724.9,415.2,729.3,416.3,733.9z"/>
		<path class="st0" d="M630.5,932.8c-39.5-0.3-73.8-5.8-107-17.7c-33.1-11.9-63.5-28.6-90.7-50.9c-20.9-17.1-39.6-36.4-55.5-58.4
			c-3.8-5.3-3.7-5.5,1.7-9.2c16.1-11.1,32.4-22.1,48.5-33.2c2.8-2,4.6-2,7,1.1c13.6,18,28.6,34.6,46.7,48.1
			c19,14.2,39.2,26.1,61.6,34.3c11.4,4.2,22.9,8.1,34.8,10.3c23.7,4.5,47.5,6.9,71.8,3.8c18.9-2.3,37.3-6.1,55.3-12.2
			c26.2-9,49.8-22.7,71.3-40c24.5-19.6,43.4-43.8,58.9-70.9c2.8-4.9,4.9-10.1,7.3-15.2c1.3-2.7,2.8-3.6,5.9-2.5
			c19.9,7.4,39.9,14.6,59.8,21.8c11.2,4.1,22.4,8.2,33.7,12.2c2.9,1,5.2,0.6,6.6-3.1c7.6-19.4,13.5-39.3,17.8-59.8
			c5.1-24.4,7.1-49,6.6-73.8c-0.4-23-3.3-45.6-8.3-68.1c-4.9-22.3-12.4-43.6-21.2-64.6c-3.6-8.7-8.1-17.1-12.6-25.4
			c-2-3.7-1.1-5.6,2.2-7.6c17.1-10.6,34.1-21.2,51.1-32c3.4-2.2,4.8-0.3,6.2,2.3c6.6,11.7,12.5,23.7,18,35.9
			c7.6,17.1,14.2,34.8,19.1,52.8c4.6,16.6,8.3,33.5,10.8,50.6c3.5,23.6,5.1,47.3,4.7,71.1c-0.3,21.6-2.3,43.1-6,64.5
			c-5.2,30.2-14,59.4-25.4,87.8c-6.5,16.2-14.7,31.6-23.1,46.9c-1.7,3.1-3.4,3.6-6.3,1.7c-17-10.9-34.1-21.8-51.2-32.6
			c-11.1-7-22.2-13.9-33.3-20.9c-2.8-1.7-4.5-1.5-6.3,1.7c-15.4,26.3-34.6,49.5-57,70.2c-18.3,17-38.6,31.4-60.6,43.3
			c-13.4,7.3-27.2,14-41.5,19.1c-20,7.1-40.5,12.9-61.6,15.5C655.7,931.4,641,933.3,630.5,932.8z"/>
		<path class="st0" d="M1151.8,619.6c0,14.9-0.1,25.1,0,35.2c0.2,13.2-2.2,26.1-3.5,39.2c-1.7,16.8-5,33.4-8.9,49.9
			c-3.2,13.3-6.8,26.6-10.9,39.7c-5.8,18.6-12.8,36.6-20.5,54.4c-7.5,17.4-16.4,34.1-25.6,50.7c-2.5,4.5-5.1,4.9-9.2,2.3
			c-17.1-10.8-34.4-21.5-51.6-32.3c-2.9-1.8-2.4-4-1-6.4c8.3-13.8,15.5-28.2,21.9-43c8.4-19.3,15.6-39.1,21.4-59.4
			c4.5-15.8,8.3-31.7,10.9-47.9c2.1-13.1,4.2-26.2,4.9-39.5c0.9-17.3,2.6-34.5,1.6-51.8c-1.1-18.2-2.4-36.4-5.2-54.5
			c-2.6-16.8-6.1-33.3-10.4-49.6c-9.7-36.8-24.1-71.6-42.8-104.7c-1.8-3.1-1.2-4.8,1.5-6.5c15.7-9.6,31.5-19.2,47.2-28.8
			c0.3-0.2,0.6-0.3,0.9-0.5c9.4-5.3,9.5-5.4,14.6,4.1c16,29.5,29.7,60,40,91.9c5.9,18.5,10.9,37.2,14.8,56.3
			C1149.1,553.4,1153.5,588.6,1151.8,619.6z"/>
	</g>
	<g>
		<path class="st1" d="M1312.5,628c1.3-6.2,2.6-12.7,4.1-19.2c6.5-27.8,13-55.5,19.6-83.3c4.9-20.9,9.9-41.7,14.8-62.6
			c5.2-22.1,10.2-44.3,15.4-66.5c5-21.2,10.1-42.4,15.1-63.6c5.6-23.8,11.1-47.5,16.7-71.3c2.2-9.3,4.3-18.5,6.3-27.8
			c0.7-3.2,2.5-4.2,5.5-4.2c12.7,0.1,25.4,0.1,38.1,0c3.4,0,4.7,1.7,5.3,4.5c4.7,20.5,9.4,41,14.2,61.5
			c5.9,25.2,11.9,50.4,17.7,75.7c5.6,24.3,11.1,48.7,16.8,73c5.7,24.3,11.6,48.6,17.2,72.9c5.7,24.5,11.2,49.1,16.8,73.6
			c2.3,10.2,4.9,20.3,7.4,30.4c1.8,7.4,1.3,8.1-6.3,8.1c-12.3,0-24.7-0.2-37,0.1c-4.1,0.1-6.3-1.3-7.1-5.3
			c-2.2-11-4.5-21.9-6.7-32.9c-3-15-5.6-30.1-9.1-44.9c-2.8-12.1-3.2-12-16-12c-24.3,0-48.6,0.1-72.9-0.1c-4.9,0-7.2,1.8-8.1,6.3
			c-3.5,17.6-7.1,35.1-10.6,52.6c-2.2,10.8-4.2,21.6-6.6,32.3c-0.3,1.5-2.7,3.6-4.1,3.6c-14.9,0.2-29.9,0-44.8-0.1
			C1313.9,628.9,1313.6,628.6,1312.5,628z M1429.7,312.1c-0.5-0.1-1-0.2-1.5-0.3c-0.8,2.6-1.7,5.2-2.3,7.9c-1,4.9-1.8,9.9-2.8,14.8
			c-5.1,24.8-10.3,49.6-15.4,74.4c-3.7,17.9-7.5,35.7-11.2,53.6c-1.7,8.2-3.3,16.4-4.8,24.7c-0.6,3-0.1,5.1,3.8,5.1
			c22-0.1,44.1,0,66.1,0c3.6,0,4.5-1.6,3.6-5c-1.2-4.3-2-8.7-2.8-13.1c-4.2-21.4-8.4-42.8-12.7-64.1c-3.8-18.8-7.6-37.6-11.5-56.4
			C1435.3,339.7,1432.5,325.9,1429.7,312.1z"/>
		<path class="st1" d="M2499.9,330.7c-6.2,0-12.3-0.1-18.5,0.1c-3.9,0.1-4.9-1.6-5.3-5.3c-1-9.6-1.6-19.4-4.2-28.6
			c-4.9-17.5-19.6-27-37.7-27.8c-30.6-1.4-43.3,19.2-46.9,41.7c-2.7,16.8-2.3,33.4,1.6,50c3.1,13,11.4,21.8,23.1,27.2
			c15.4,7.1,31.2,13.3,46.7,20.2c11,5,22.3,9.7,32.6,16c17.7,11,26.8,28,30.6,48.1c4.5,23.8,4.9,47.9,3.3,72
			c-1,15.5-3.2,30.8-10,45.1c-9.5,20-25.8,32.3-46.5,38.3c-29.3,8.4-58.7,8.5-87.1-3.8c-22.1-9.5-36.5-26.6-41.5-50.2
			c-2.9-13.6-3.1-27.7-4.6-41.6c-0.7-5.8,1.8-7.4,7.4-7.2c11,0.4,22.1,0.4,33.1,0c5.8-0.2,7.4,2.2,7.7,7.5
			c0.6,8.7,0.6,17.7,2.8,26.1c6.2,22.9,24,32.4,46.9,31.5c23.4-1,37.8-13.5,42.2-36.5c1.7-9.1,2.4-18.6,2.3-27.9
			c-0.2-12.1-1-24.3-2.7-36.2c-2.6-18.9-14.9-30.4-31.7-37.4c-17.9-7.5-35.9-14.6-53.8-22c-22.8-9.5-40.8-23.9-46.4-49.2
			c-2.9-13.2-4.3-26.9-5.1-40.4c-1.2-21,0.9-41.8,9.5-61.4c11.4-26,30.6-42.8,58.3-49.4c26.3-6.3,52-4.4,76.2,8.1
			c20.2,10.5,32.9,27.5,37.7,49.6c2.7,12.3,3.2,25.1,4.7,37.6c0.6,5-1.6,6.6-6.5,6.3C2511.8,330.5,2505.8,330.8,2499.9,330.7
			L2499.9,330.7z"/>
		<path class="st1" d="M2612.2,524.9c6.2,0,12.3,0.1,18.5-0.1c3.9-0.1,5.6,1,6,5.3c0.9,9.8,1.3,19.9,4,29.3
			c6.8,23.8,26.7,31.9,48.7,30.1c28.8-2.4,40.5-22.8,41.2-45.7c0.5-14.4,0.4-28.7,0-43.1c-0.7-23.3-11.5-40.1-33.4-49.1
			c-19.3-8-38.7-15.8-57.9-23.9c-27-11.4-41.7-31.9-45.3-61c-2.8-22.8-3.9-45.6,0.9-68c8.8-40.8,35.9-68,79.6-72.2
			c25.6-2.4,49.9,1.4,71.2,17c14.9,11,24.2,26.1,28,43.9c2.7,12.3,3.1,25.1,4.5,37.7c0.5,4.1-1.3,5.6-5.5,5.6
			c-12.1-0.2-24.3-0.2-36.4,0.1c-4.7,0.1-6-1.7-6.1-6.2c-0.3-14.5-2.4-28.6-11.5-40.8c-6.1-8.2-14.3-12.9-23.9-14.2
			c-28.3-3.7-47.4,7.8-53.3,38.6c-2.9,15.4-2.4,30.8-0.4,46.2c2.3,17.9,13.1,28.9,28.7,35.7c18.8,8.2,37.8,15.8,56.7,23.8
			c19.9,8.5,36.5,20.7,44,42c3.3,9.6,6.5,19.7,7,29.8c1,23.3,1.6,46.7,0,69.9c-1.6,22.4-9.4,43-28,57.8c-12.9,10.3-28,15.9-44,18
			c-23.7,3.1-47.4,2.5-69.8-7.4c-24.6-10.9-39-30.1-43.6-56.4c-2.2-12.5-2.6-25.2-3.9-37.8c-0.4-3.6,0.7-5.2,4.5-5.1
			C2599.4,525,2605.8,524.9,2612.2,524.9z"/>
		<path class="st1" d="M2118.1,429.4c0-63.9,0-127.9,0-191.8c0-8.1,0-8.1,7.9-8.1c46.7,0,93.5,0.1,140.2-0.1c5.7,0,7.5,1.4,7.2,7.2
			c-0.5,9.7-0.3,19.4,0,29.2c0.1,4.7-1.5,6.1-6.1,6.1c-30.7-0.2-61.3-0.1-92-0.1c-8.8,0-8.9,0.1-8.9,8.6c0,39.4,0,78.9,0.1,118.3
			c0,8.7,0.1,8.8,8.8,8.8c25.4,0,50.8,0.1,76.3-0.1c5.5-0.1,7.7,1.4,7.4,7.2c-0.4,9.7-0.3,19.4,0,29.2c0.1,4.6-1.5,6.1-6.2,6.1
			c-26.4-0.2-52.7,0.1-79.1-0.2c-5.7-0.1-7.3,1.6-7.3,7.3c0.2,40.6,0.1,81.1,0.1,121.7c0,7.7,0,7.7,7.8,7.7
			c30.8,0,61.7,0.1,92.5-0.1c5.2,0,6.8,1.5,6.6,6.6c-0.4,10.3-0.3,20.6-0.1,30.8c0.1,4.5-1.6,5.8-5.9,5.8c-47.7-0.1-95.3-0.2-143,0
			c-5.5,0-6.4-2.4-6.4-7.1C2118.1,558,2118.1,493.7,2118.1,429.4z"/>
		<path class="st1" d="M1853.5,429.2c0-22.2-0.7-44.5,0.2-66.7c0.9-22.9,1.3-46,7.5-68.3c9.9-34.9,30.7-59.6,67.7-66.9
			c27.6-5.5,54.3-3.2,77.9,14.3c17.1,12.7,27,30.3,31.8,50.6c2.3,9.6,3,19.5,4.4,29.3c0.6,4.2-0.9,6-5.5,5.9
			c-12.1-0.3-24.3-0.2-36.4,0c-4.5,0.1-5.7-1.6-5.7-5.9c-0.3-12.5-2.8-24.5-9.5-35.2c-8.9-14.3-26.1-21-42.7-18
			c-24.2,4.3-33.4,22.8-36.2,42.2c-2.8,19.3-4.1,39-4.6,58.5c-0.9,37.2-1.5,74.3-0.8,111.5c0.4,22.9,2.5,45.8,5.6,68.5
			c2.2,16.5,8.9,31.8,26.2,38.4c23.5,9,49.4,1.7,57.7-27.1c2.4-8.2,3.2-16.8,4.3-25.3c0.4-3.3,1.6-4.6,4.9-4.6
			c12.9,0.1,25.8,0.1,38.7,0c2.7,0,4.3,0.7,4.2,3.7c-1.2,30.8-8.3,59.3-33.1,80.2c-20.4,17.2-44.7,21.3-70.5,18.9
			c-17.6-1.7-33.8-7.5-47.5-19.2c-18.8-16-29.1-36.6-33-60.6C1852.3,512.2,1853.1,470.7,1853.5,429.2z"/>
		<path class="st1" d="M1761,327.3c-6,0-12-0.2-17.9,0.1c-4.7,0.3-6.3-1.8-6.3-6.2c0-11.6-2.7-22.6-8.2-32.8
			c-7.9-14.7-21-21-37-20.8c-17,0.3-30.1,8.1-37.4,23.9c-7.6,16.3-9.3,33.9-9.7,51.4c-1.1,44.1-1.8,88.2-1.7,132.2
			c0,20.7,1.7,41.4,3.6,62c1.2,12.5,4,25,11.2,36c7.4,11.2,17.7,16.5,30.9,17.4c30.3,2.1,42.3-17.7,46.3-38.6
			c1-5.3,1.6-10.7,2.1-16.1c0.3-3.8,1.5-5.7,5.7-5.6c12.3,0.2,24.7,0.1,37,0.1c2.5,0,5-0.3,4.9,3.5c-0.5,26.8-6.4,52.1-24.7,72.5
			c-21.1,23.5-48.8,29.5-79,26.7c-20.8-2-38.9-9.9-53.6-24.9c-15.1-15.3-23.4-34-26.7-55c-7.2-46.2-6.3-92.7-5.7-139.2
			c0.4-32.8,1.5-65.7,4.2-98.4c2.3-28.1,12.7-53.2,35.5-71.7c19.9-16.2,43.1-20.1,67.9-18.4c32.6,2.2,56.5,17.6,70.8,47
			c7.6,15.6,11,32.4,11.4,49.8c0.1,3.9-1.1,5.3-5.1,5.2C1773.3,327.1,1767.2,327.3,1761,327.3z"/>
	</g>
	<g>
		<g>
			<path class="st2" d="M1366.9,821c-4.3,4.7-10.7,7.4-19.7,7.4c-8.5,0-15.3-2.3-19.9-7.4c-5.7-6.5-7.5-13.3-7.5-28.6h10.5
				c0,10.8,1.1,16.4,5,20.8c2.7,2.9,6.6,4.7,11.9,4.7c5.9,0,9.6-1.8,12.1-4.7c4.1-4.9,5-11,5-21.9c0-17.4-2.5-23.7-13.3-28.6
				l-13.5-6.1c-13-5.9-16.7-13.9-16.7-34.9c0-11.9,2.8-21.5,8.7-27.6c4.6-4.9,10.7-7.4,18.5-7.4c8.2,0,14.6,2.7,19,7.6
				c6.2,6.9,7.6,14.9,7.6,27h-10.5c0-8.8-1.1-14.5-4.8-19.2c-2.5-3.1-6.2-5.1-11.5-5.1c-5,0-8.5,1.8-11,4.5
				c-3.9,4.3-5.5,11.4-5.5,20c0,16.1,2.1,20.8,13.7,26l13.5,6.1c13.7,6.1,16.3,17,16.3,37.2C1374.7,805.6,1372.6,814.8,1366.9,821z"
				/>
			<path class="st2" d="M1392.4,704.7v-14.1h12.8v14.1H1392.4z M1393.9,827.3v-99.7h9.9v99.7H1393.9z"/>
			<path class="st2" d="M1461,827.3v-75c0-11-5.5-16.3-12.4-16.3s-12.6,5.3-12.6,16.3v75h-9.9v-99.7h9.8v8c1.1-2.2,3.6-4.9,5.1-6.1
				c2.8-2.2,6.2-3.5,10.3-3.5c6,0,10.5,2.5,14.2,6.9c3.6,4.1,5.5,9.6,5.5,19.6v74.8H1461z"/>
			<path class="st2" d="M1528.3,860.2c-3.7,4.5-9.8,7.2-16.2,7.2c-6.6,0-12.3-2.2-16.3-6.7c-4.6-5.1-6.2-11.7-6.2-21h9.8
				c0,6.1,0.7,10.8,3.9,14.3c2.3,2.5,5.3,3.7,8.7,3.7c3.9,0,6.9-2,8.9-4.3c3.2-3.9,4.3-10.6,4.3-23.1v-12.5
				c-0.9,2.2-3.2,4.7-4.8,5.9c-2.8,2.2-6,2.9-10.3,2.9c-5.7,0-10.1-2.2-13.8-6.9c-5.5-6.9-6.9-18.6-6.9-43.5s1.4-36.4,6.9-43.3
				c3.4-4.1,7.5-7,13.8-7c4.1,0,7.5,1.2,10.5,3.5c1.4,1.2,3.9,3.7,4.8,5.9v-7.8h9.8v102.6C1535,846.9,1533.4,854.1,1528.3,860.2z
				 M1525.1,753.3c0-6.5-1.4-10.8-4.1-13.7c-2.3-2.3-5.3-3.7-8.7-3.7c-3.7,0-6.7,2-8.7,4.5c-4.1,5.3-4.4,15.7-4.4,36.2
				c0,20.6,0.4,30.7,4.4,36c2,2.5,5,4.5,8.7,4.5c3.4,0,6.4-1.2,8.7-3.7c2.7-2.9,4.1-7.2,4.1-13.7V753.3z"/>
			<path class="st2" d="M1588.6,827.3v-9c-1.2,2.7-3.4,5.3-5,6.7c-2.8,2.3-5.9,3.9-10.8,3.9c-5.7,0-10.5-2.2-14.4-6.7
				c-3.4-3.9-5.9-11.7-5.9-22.5c0-9.4,2.5-17.4,7.6-22.5c4.4-4.5,9.6-6.7,17.8-6.7h10.3v-17.8c0-11-4.1-17-12.4-17
				c-3.6,0-6.2,1.6-8.2,3.7c-2.8,3.3-4.1,7.2-4.1,13.9h-9.9c0-7.4,1.4-14.9,6.6-20.6c3.7-4.1,9.1-6.7,15.6-6.7
				c7.1,0,12.6,2.2,16.2,6.3c4.1,4.7,6.2,11,6.2,20.8v74.2L1588.6,827.3L1588.6,827.3z M1588.3,779.1h-9.9c-4.6,0-8,1.2-11,4.3
				c-3,3.3-4.8,9.4-4.8,16.1c0,11.9,3.9,19.6,12.6,19.6c8,0,13.1-7.6,13.1-18L1588.3,779.1L1588.3,779.1z"/>
			<path class="st2" d="M1658.7,821.8c-3.4,4.3-7.8,7-14,7c-4.1,0-7.3-1-10.3-3.1c-1.8-1.2-3.9-3.7-5-5.9V867h-9.9V727.6h9.8v8
				c0.9-2.2,3.7-4.9,5.1-6.1c3-2.3,6.2-3.5,10.3-3.5c5.5,0,10.3,2.3,14,7c5.5,7,6.7,19.6,6.7,44.4S1664.3,814.8,1658.7,821.8z
				 M1650.9,740.4c-2-2.5-5.1-4.5-8.7-4.5c-3.4,0-6.2,1.4-8.5,3.7c-2.7,2.9-4.3,7.2-4.3,13.7v48.4c0,6.5,1.6,11,4.3,13.9
				c2.3,2.3,5.1,3.5,8.5,3.5c3.6,0,6.7-2,8.7-4.5c4.1-5.5,4.6-15.7,4.6-37S1655,745.8,1650.9,740.4z"/>
			<path class="st2" d="M1721.4,821c-3.9,5.3-9.4,7.8-16.7,7.8c-7.3,0-12.8-2.5-16.7-7.8c-5.5-7.2-6.7-20-6.7-43.5
				s1.2-36.2,6.7-43.5c3.9-5.3,9.4-8,16.7-8c7.3,0,12.8,2.7,16.7,8c5.5,7.2,6.7,20,6.7,43.5S1726.9,813.8,1721.4,821z M1713.6,740.4
				c-2-2.5-5-4.5-8.9-4.5s-7.1,2-9.1,4.5c-4.1,5.5-4.4,15.9-4.4,37.2s0.4,31.5,4.4,37c2,2.5,5.1,4.5,9.1,4.5s6.9-2,8.9-4.5
				c4.1-5.5,4.6-15.7,4.6-37S1717.7,745.8,1713.6,740.4z"/>
			<path class="st2" d="M1774.5,736.4c-10.7,0-17.6,7.4-17.6,19.4v71.5h-9.9v-99.7h9.8v10.6c0.9-2.2,3-4.9,4.4-6.3
				c4.1-4.1,9.4-5.9,15.4-5.9v10.4H1774.5z"/>
			<path class="st2" d="M1797.4,779.1c0,20.4,0.5,30.3,4.6,35.4c2,2.5,5,4.5,9.1,4.5c3.6,0,6.7-1.2,9.1-3.9c2.7-3.1,4.1-8,4.1-14.1
				h9.8c-0.2,9.6-2,15.7-6.6,21c-3.9,4.5-10.1,6.9-16.3,6.9c-7.1,0-12.4-2.5-16.3-7.2c-6-7-7.3-20.2-7.3-44.1s1.2-37.2,7.3-44.3
				c3.9-4.7,9.2-7.2,16.2-7.2c6.9,0,12.3,2.5,16.2,7.2c6.4,7.6,7.1,21.7,7.1,45.8L1797.4,779.1L1797.4,779.1z M1819.8,740.4
				c-2-2.5-4.8-4.5-8.9-4.5s-7.1,2-9.1,4.5c-3.6,4.5-4.3,13.1-4.4,30h26.8C1824,753.5,1823.3,744.9,1819.8,740.4z"/>
			<path class="st2" d="M1930.6,822.2c-4.3,4.1-9.9,6.7-17.4,6.7c-8.2,0-14.6-3.1-18.8-8.2c-8-9.4-8.9-20.4-8.9-63s0.9-53.6,8.9-63
				c4.3-5.1,10.7-8.2,18.8-8.2c8,0,13.8,2.7,18.1,7.4c5.5,6.1,8,15.5,8.2,26H1929c0-7-1.2-13.9-5-18.4c-2.5-2.9-5.9-4.7-10.8-4.7
				c-5.1,0-8.7,2-11.2,5.1c-5.1,6.9-6,14.9-6,55.8s0.9,49,6,55.8c2.5,3.1,6,5.1,11.2,5.1c5,0,8.3-1.8,10.8-4.7
				c3.7-4.5,5-11.4,5-18.4h10.5C1939.3,806.5,1936.6,816.1,1930.6,822.2z"/>
			<path class="st2" d="M1985.2,736.4c-10.7,0-17.6,7.4-17.6,19.4v71.5h-9.9v-99.7h9.8v10.6c0.9-2.2,3-4.9,4.4-6.3
				c4.1-4.1,9.4-5.9,15.4-5.9v10.4H1985.2z"/>
			<path class="st2" d="M2018.1,846.7c-3.4,15.5-12.6,20.4-26.3,20.4v-9.8c9.8,0,14.6-4.3,16.5-12.7l4.1-17.6l-21.5-99.3h11
				l15.4,82.2l15.4-82.2h10.8L2018.1,846.7z"/>
			<path class="st2" d="M2095.2,821.8c-3.4,4.3-7.8,7-14,7c-4.1,0-7.3-1-10.3-3.1c-1.8-1.2-3.9-3.7-5-5.9V867h-9.9V727.6h9.8v8
				c0.9-2.2,3.7-4.9,5.1-6.1c3-2.3,6.2-3.5,10.3-3.5c5.5,0,10.3,2.3,14,7c5.5,7,6.7,19.6,6.7,44.4S2100.7,814.8,2095.2,821.8z
				 M2087.3,740.4c-2-2.5-5.1-4.5-8.7-4.5c-3.4,0-6.2,1.4-8.5,3.7c-2.7,2.9-4.3,7.2-4.3,13.7v48.4c0,6.5,1.6,11,4.3,13.9
				c2.3,2.3,5.1,3.5,8.5,3.5c3.6,0,6.7-2,8.7-4.5c4.1-5.5,4.6-15.7,4.6-37S2091.4,745.8,2087.3,740.4z"/>
			<path class="st2" d="M2130.3,821c-4.4-4.5-6.7-11.2-6.7-20.4V737h-11v-8.6h11v-30h9.9v30h15.4v8.6h-15.4v63.6
				c0,11.9,5.7,16.8,16.2,16.8v9.8C2142.4,827.3,2135.6,826.5,2130.3,821z"/>
			<path class="st2" d="M2201.3,821c-3.9,5.3-9.4,7.8-16.7,7.8c-7.3,0-12.8-2.5-16.7-7.8c-5.5-7.2-6.7-20-6.7-43.5
				s1.2-36.2,6.7-43.5c3.9-5.3,9.4-8,16.7-8c7.3,0,12.8,2.7,16.7,8c5.5,7.2,6.7,20,6.7,43.5S2206.8,813.8,2201.3,821z M2193.5,740.4
				c-2-2.5-5-4.5-8.9-4.5s-7.1,2-9.1,4.5c-4.1,5.5-4.4,15.9-4.4,37.2s0.4,31.5,4.4,37c2,2.5,5.1,4.5,9.1,4.5s6.9-2,8.9-4.5
				c4.1-5.5,4.6-15.7,4.6-37S2197.6,745.8,2193.5,740.4z"/>
			<path class="st2" d="M2263.3,822.4c-3.9,4.5-9.4,6.5-16,6.5c-6.7,0-12.8-2.5-16.7-7.8c-5.5-7.2-6.7-20-6.7-43.5
				s1.2-36.2,6.7-43.5c3.9-5.3,9.9-8,16.7-8c6.9,0,12.1,1.6,16,6.1c5.3,5.9,6.2,13.9,6.4,21.9h-9.8c0-4.9-0.4-10.2-3.6-14.1
				c-2.3-2.7-5-4.1-8.9-4.1s-7.3,2-9.2,4.5c-4.1,5.5-4.4,15.9-4.4,37.2s0.4,31.5,4.4,37c2,2.5,5.3,4.5,9.2,4.5
				c3.6,0,6.4-1.4,8.7-3.9c3.2-3.5,3.7-8.2,3.7-14.1h9.8C2269.5,810.5,2267.7,817.3,2263.3,822.4z"/>
			<path class="st2" d="M2321.7,827.3v-8c-1.1,2.2-3.6,4.9-5.1,6.1c-2.8,2.2-6.2,3.5-10.3,3.5c-6,0-10.5-2.3-14.2-6.7
				c-3.6-4.1-5.5-9.8-5.5-19.8v-74.8h9.9v75c0,11,5.5,16.3,12.4,16.3s12.6-5.3,12.6-16.3v-75h9.9v99.7H2321.7z"/>
			<path class="st2" d="M2381,736.4c-10.7,0-17.6,7.4-17.6,19.4v71.5h-9.9v-99.7h9.8v10.6c0.9-2.2,3-4.9,4.4-6.3
				c4.1-4.1,9.4-5.9,15.4-5.9v10.4H2381z"/>
			<path class="st2" d="M2424.5,736.4c-10.7,0-17.6,7.4-17.6,19.4v71.5h-9.9v-99.7h9.8v10.6c0.9-2.2,3-4.9,4.4-6.3
				c4.1-4.1,9.4-5.9,15.4-5.9v10.4H2424.5z"/>
			<path class="st2" d="M2447.4,779.1c0,20.4,0.5,30.3,4.6,35.4c2,2.5,5,4.5,9.1,4.5c3.6,0,6.7-1.2,9.1-3.9c2.7-3.1,4.1-8,4.1-14.1
				h9.8c-0.2,9.6-2,15.7-6.6,21c-3.9,4.5-10.1,6.9-16.3,6.9c-7.1,0-12.4-2.5-16.3-7.2c-6-7-7.3-20.2-7.3-44.1s1.2-37.2,7.3-44.3
				c3.9-4.7,9.2-7.2,16.2-7.2c6.9,0,12.3,2.5,16.2,7.2c6.4,7.6,7.1,21.7,7.1,45.8L2447.4,779.1L2447.4,779.1z M2469.8,740.4
				c-2-2.5-4.8-4.5-8.9-4.5s-7.1,2-9.1,4.5c-3.6,4.5-4.3,13.1-4.4,30h26.8C2474,753.5,2473.3,744.9,2469.8,740.4z"/>
			<path class="st2" d="M2537.4,827.3v-75c0-11-5.5-16.3-12.4-16.3s-12.6,5.3-12.6,16.3v75h-9.9v-99.7h9.8v8
				c1.1-2.2,3.6-4.9,5.1-6.1c2.8-2.2,6.2-3.5,10.3-3.5c6,0,10.5,2.5,14.2,6.9c3.6,4.1,5.5,9.6,5.5,19.6v74.8H2537.4z"/>
			<path class="st2" d="M2605.1,822.4c-3.9,4.5-9.4,6.5-16,6.5c-6.7,0-12.8-2.5-16.7-7.8c-5.5-7.2-6.7-20-6.7-43.5
				s1.2-36.2,6.7-43.5c3.9-5.3,9.9-8,16.7-8c6.9,0,12.1,1.6,16,6.1c5.3,5.9,6.2,13.9,6.4,21.9h-9.8c0-4.9-0.4-10.2-3.6-14.1
				c-2.3-2.7-5-4.1-8.9-4.1s-7.3,2-9.2,4.5c-4.1,5.5-4.4,15.9-4.4,37.2s0.4,31.5,4.4,37c2,2.5,5.3,4.5,9.2,4.5
				c3.6,0,6.4-1.4,8.7-3.9c3.2-3.5,3.7-8.2,3.7-14.1h9.8C2611.3,810.5,2609.5,817.3,2605.1,822.4z"/>
			<path class="st2" d="M2645.9,846.7c-3.4,15.5-12.6,20.4-26.3,20.4v-9.8c9.8,0,14.6-4.3,16.5-12.7l4.1-17.6l-21.5-99.3h11
				l15.4,82.2l15.4-82.2h10.8L2645.9,846.7z"/>
			<path class="st2" d="M2749.7,827.3v-9c-1.2,2.7-3.4,5.3-5,6.7c-2.8,2.3-5.9,3.9-10.8,3.9c-5.7,0-10.5-2.2-14.4-6.7
				c-3.4-3.9-5.9-11.7-5.9-22.5c0-9.4,2.5-17.4,7.6-22.5c4.4-4.5,9.6-6.7,17.8-6.7h10.3v-17.8c0-11-4.1-17-12.4-17
				c-3.6,0-6.2,1.6-8.2,3.7c-2.8,3.3-4.1,7.2-4.1,13.9h-9.9c0-7.4,1.4-14.9,6.6-20.6c3.7-4.1,9.1-6.7,15.6-6.7
				c7.1,0,12.6,2.2,16.2,6.3c4.1,4.7,6.2,11,6.2,20.8v74.2L2749.7,827.3L2749.7,827.3z M2749.4,779.1h-9.9c-4.6,0-8,1.2-11,4.3
				c-3,3.3-4.8,9.4-4.8,16.1c0,11.9,3.9,19.6,12.6,19.6c8,0,13.1-7.6,13.1-18L2749.4,779.1L2749.4,779.1z"/>
			<path class="st2" d="M2815.6,827.3v-75c0-11-5.5-16.3-12.4-16.3s-12.6,5.3-12.6,16.3v75h-9.9v-99.7h9.8v8
				c1.1-2.2,3.6-4.9,5.1-6.1c2.8-2.2,6.2-3.5,10.3-3.5c6,0,10.5,2.5,14.2,6.9c3.6,4.1,5.5,9.6,5.5,19.6v74.8H2815.6z"/>
			<path class="st2" d="M2879.9,827.3v-8c-0.9,2.2-3.6,4.9-5,6.1c-3,2.3-6.2,3.5-10.3,3.5c-5.5,0-10.3-2.3-14-7
				c-5.5-7-6.7-19.4-6.7-44.3s1.2-37.4,6.7-44.4c3.4-4.3,7.8-7,14-7c4.1,0,7.3,1,10.3,3.1c1.8,1.2,3.7,3.7,4.8,5.9V688h9.9v139.4
				L2879.9,827.3L2879.9,827.3z M2879.7,753.3c0-6.5-1.4-10.8-4.1-13.7c-2.3-2.3-5.3-3.7-8.7-3.7c-3.6,0-6.7,2-8.7,4.5
				c-4.1,5.5-4.4,15.9-4.4,37.2s0.4,31.5,4.4,37c2,2.5,5.1,4.5,8.7,4.5c3.4,0,6.4-1.2,8.7-3.5c2.7-2.9,4.1-7.4,4.1-13.9V753.3z"/>
			<path class="st2" d="M1369.4,1027.3c-5.1,5.7-11.5,8-22,8h-22.5V895.9h22.7c10.3,0,16.5,2.2,21.5,8c5.3,6.3,6.9,13.5,6.9,28
				c0,9.8-1.1,18.4-7.5,25.5c-2.5,2.7-5.3,4.7-8,5.5c3.4,0.8,6.2,2.7,8.7,5.5c6.9,7.8,7.8,18.2,7.8,28.2
				C1377,1013.8,1374.7,1021.2,1369.4,1027.3z M1347.7,906.3h-12.4V958h12.4c11.4,0,17.8-7.2,17.8-25.8
				C1365.4,911.7,1359.1,906.3,1347.7,906.3z M1347.7,968.1h-12.4v56.8h12.4c12.1,0,18.8-6.1,18.8-28.4
				C1366.5,976.2,1359.8,968.1,1347.7,968.1z"/>
			<path class="st2" d="M1403.3,1029c-4.3-4.3-6.7-10.4-6.7-20.4V895.9h9.9v112.8c0,10.8,4.8,16.8,14.7,16.8v9.8
				C1414.4,1035.3,1408.2,1034.1,1403.3,1029z"/>
			<path class="st2" d="M1472.2,1029c-3.9,5.3-9.4,7.8-16.7,7.8c-7.3,0-12.8-2.5-16.7-7.8c-5.5-7.2-6.7-20-6.7-43.5
				s1.2-36.2,6.7-43.5c3.9-5.3,9.4-8,16.7-8c7.3,0,12.8,2.7,16.7,8c5.5,7.2,6.7,20,6.7,43.5S1477.7,1021.8,1472.2,1029z
				 M1464.3,948.4c-2-2.5-5-4.5-8.9-4.5s-7.1,2-9.1,4.5c-4.1,5.5-4.4,15.9-4.4,37.2s0.4,31.5,4.4,37c2,2.5,5.1,4.5,9.1,4.5
				s6.9-2,8.9-4.5c4.1-5.5,4.6-15.7,4.6-37S1468.4,953.8,1464.3,948.4z"/>
			<path class="st2" d="M1534.1,1030.4c-3.9,4.5-9.4,6.5-16,6.5c-6.7,0-12.8-2.5-16.7-7.8c-5.5-7.2-6.7-20-6.7-43.5
				s1.2-36.2,6.7-43.5c3.9-5.3,9.9-8,16.7-8c6.9,0,12.1,1.6,16,6.1c5.3,5.9,6.2,13.9,6.4,21.9h-9.8c0-4.9-0.4-10.2-3.6-14.1
				c-2.3-2.7-5-4.1-8.9-4.1s-7.3,2-9.2,4.5c-4.1,5.5-4.4,15.9-4.4,37.2s0.4,31.5,4.4,37c2,2.5,5.3,4.5,9.2,4.5
				c3.6,0,6.4-1.4,8.7-3.9c3.2-3.5,3.7-8.2,3.7-14.1h9.8C1540.3,1018.5,1538.6,1025.3,1534.1,1030.4z"/>
			<path class="st2" d="M1599.5,1035.3l-19.5-51.9l-11.9,20.8v31.1h-9.9V895.9h9.9v92l28.6-52.3h10.8l-21.3,38.2l24.3,61.5H1599.5z"
				/>
			<path class="st2" d="M1660.7,1030.4c-3.9,4.5-9.4,6.5-16,6.5c-6.7,0-12.8-2.5-16.7-7.8c-5.5-7.2-6.7-20-6.7-43.5
				s1.2-36.2,6.7-43.5c3.9-5.3,9.9-8,16.7-8c6.9,0,12.1,1.6,16,6.1c5.3,5.9,6.2,13.9,6.4,21.9h-9.8c0-4.9-0.4-10.2-3.6-14.1
				c-2.3-2.7-5-4.1-8.9-4.1s-7.3,2-9.2,4.5c-4.1,5.5-4.4,15.9-4.4,37.2s0.4,31.5,4.4,37c2,2.5,5.3,4.5,9.2,4.5
				c3.6,0,6.4-1.4,8.7-3.9c3.2-3.5,3.7-8.2,3.7-14.1h9.8C1666.9,1018.5,1665.1,1025.3,1660.7,1030.4z"/>
			<path class="st2" d="M1719.6,1035.3v-75c0-11-5.5-16.3-12.4-16.3s-12.6,5.3-12.6,16.3v75h-9.9V895.9h9.9v47.6
				c0.9-2.2,3.6-4.7,5-5.9c2.8-2.2,6.2-3.5,10.3-3.5c6,0,10.5,2.5,14.2,6.9c3.6,4.1,5.5,9.6,5.5,19.6v74.8L1719.6,1035.3
				L1719.6,1035.3z"/>
			<path class="st2" d="M1782.5,1035.3v-9c-1.2,2.7-3.4,5.3-5,6.7c-2.8,2.3-5.9,3.9-10.8,3.9c-5.7,0-10.5-2.2-14.4-6.7
				c-3.4-3.9-5.9-11.7-5.9-22.5c0-9.4,2.5-17.4,7.6-22.5c4.4-4.5,9.6-6.7,17.8-6.7h10.3v-17.8c0-11-4.1-17-12.4-17
				c-3.6,0-6.2,1.6-8.2,3.7c-2.8,3.3-4.1,7.2-4.1,13.9h-9.9c0-7.4,1.4-14.9,6.6-20.6c3.7-4.1,9.1-6.7,15.6-6.7
				c7.1,0,12.6,2.2,16.2,6.3c4.1,4.7,6.2,11,6.2,20.8v74.2H1782.5L1782.5,1035.3z M1782.1,987.1h-9.9c-4.6,0-8,1.2-11,4.3
				c-3,3.3-4.8,9.4-4.8,16.1c0,11.9,3.9,19.6,12.6,19.6c8,0,13.1-7.6,13.1-18L1782.1,987.1L1782.1,987.1z"/>
			<path class="st2" d="M1812,912.7v-14.1h12.8v14.1H1812z M1813.4,1035.3v-99.7h9.9v99.7H1813.4z"/>
			<path class="st2" d="M1880.5,1035.3v-75c0-11-5.5-16.3-12.4-16.3s-12.6,5.3-12.6,16.3v75h-9.9v-99.7h9.8v8
				c1.1-2.2,3.6-4.9,5.1-6.1c2.8-2.2,6.2-3.5,10.3-3.5c6,0,10.5,2.5,14.2,6.9c3.6,4.1,5.5,9.6,5.5,19.6v74.8H1880.5z"/>
			<path class="st2" d="M1947.4,1035.3V895.9h10.5v139.4H1947.4z"/>
			<path class="st2" d="M2016.1,1035.3v-75c0-11-5.5-16.3-12.4-16.3s-12.6,5.3-12.6,16.3v75h-9.9v-99.7h9.8v8
				c1.1-2.2,3.6-4.9,5.1-6.1c2.8-2.2,6.2-3.5,10.3-3.5c6,0,10.5,2.5,14.2,6.9c3.6,4.1,5.5,9.6,5.5,19.6v74.8H2016.1z"/>
			<path class="st2" d="M2080.4,1035.3v-8c-0.9,2.2-3.6,4.9-5,6.1c-3,2.3-6.2,3.5-10.3,3.5c-5.5,0-10.3-2.3-14-7
				c-5.5-7-6.7-19.4-6.7-44.3s1.2-37.4,6.7-44.4c3.4-4.3,7.8-7,14-7c4.1,0,7.3,1,10.3,3.1c1.8,1.2,3.7,3.7,4.8,5.9V896h9.9v139.4
				L2080.4,1035.3L2080.4,1035.3z M2080.2,961.3c0-6.5-1.4-10.8-4.1-13.7c-2.3-2.3-5.3-3.7-8.7-3.7c-3.6,0-6.7,2-8.7,4.5
				c-4.1,5.5-4.4,15.9-4.4,37.2s0.4,31.5,4.4,37c2,2.5,5.1,4.5,8.7,4.5c3.4,0,6.4-1.2,8.7-3.5c2.7-2.9,4.1-7.4,4.1-13.9V961.3z"/>
			<path class="st2" d="M2146.6,1035.3v-8c-1.1,2.2-3.6,4.9-5.1,6.1c-2.8,2.2-6.2,3.5-10.3,3.5c-6,0-10.5-2.3-14.2-6.7
				c-3.6-4.1-5.5-9.8-5.5-19.8v-74.8h9.9v75c0,11,5.5,16.3,12.4,16.3s12.6-5.3,12.6-16.3v-75h9.9v99.7H2146.6z"/>
			<path class="st2" d="M2214.1,1029.2c-4.4,4.9-10.3,7.6-17.2,7.6s-12.4-2.5-16.5-7c-5.1-5.9-7.1-13.1-7.1-21.5h9.9
				c0,6.3,1.2,11,4.6,14.7c2.5,2.7,5.7,4.1,9.1,4.1c4.3,0,7.6-1.6,10.3-4.5c2.7-2.9,4.1-7.2,4.1-12.3c0-4.1-0.7-7.6-2.5-10.8
				c-2-3.3-4.8-6.1-9.1-8.6l-11.4-6.9c-5.7-3.5-9.8-8-11.7-11.7c-1.8-3.7-2.5-7.6-2.5-12.5c0-7.6,2.8-14.1,7.1-18.8
				c4.1-4.5,9.8-6.9,16.2-6.9c6.7,0,12.1,2.2,16.2,6.7c4.4,4.9,6.6,11.9,6.6,21.5h-9.9c0-7.4-1.1-11.2-3.9-14.5
				c-2.5-2.9-5.7-3.9-8.9-3.9c-3.9,0-7.1,1.2-9.4,3.7c-2.8,2.9-3.9,7.6-3.9,11.7c0,3.3,0.5,6.3,1.8,8.6c1.2,2.5,4.3,4.9,8.3,7.4
				l11.2,7c5.9,3.7,9.8,7.2,12.3,11.7s3.6,10,3.6,15.7C2221.2,1017.7,2218.4,1024.5,2214.1,1029.2z"/>
			<path class="st2" d="M2247.7,1029c-4.4-4.5-6.7-11.2-6.7-20.4V945h-11v-8.6h11v-30h9.9v30h15.4v8.6h-15.4v63.6
				c0,11.9,5.7,16.8,16.2,16.8v9.8C2259.7,1035.3,2253,1034.5,2247.7,1029z"/>
			<path class="st2" d="M2309.1,944.4c-10.7,0-17.6,7.4-17.6,19.4v71.5h-9.9v-99.7h9.8v10.6c0.9-2.2,3-4.9,4.4-6.3
				c4.1-4.1,9.4-5.9,15.4-5.9v10.4H2309.1z"/>
			<path class="st2" d="M2341.9,1054.7c-3.4,15.5-12.6,20.4-26.3,20.4v-9.8c9.8,0,14.6-4.3,16.5-12.7l4.1-17.6l-21.5-99.3h11
				l15.4,82.2l15.4-82.2h10.8L2341.9,1054.7z"/>
			<path class="st2" d="M2458.4,1035.3l-6.9-38.2H2422l-6.7,38.2h-11.4l28.2-139.4h9.8l27.7,139.4H2458.4z M2436.7,916.6l-12.6,70.1
				h25.4L2436.7,916.6z"/>
			<path class="st2" d="M2517.2,1029.2c-4.4,4.9-10.3,7.6-17.2,7.6s-12.4-2.5-16.5-7c-5.1-5.9-7.1-13.1-7.1-21.5h9.9
				c0,6.3,1.2,11,4.6,14.7c2.5,2.7,5.7,4.1,9.1,4.1c4.3,0,7.6-1.6,10.3-4.5c2.7-2.9,4.1-7.2,4.1-12.3c0-4.1-0.7-7.6-2.5-10.8
				c-2-3.3-4.8-6.1-9.1-8.6l-11.4-6.9c-5.7-3.5-9.8-8-11.7-11.7c-1.8-3.7-2.5-7.6-2.5-12.5c0-7.6,2.8-14.1,7.1-18.8
				c4.1-4.5,9.8-6.9,16.2-6.9c6.7,0,12.1,2.2,16.2,6.7c4.4,4.9,6.6,11.9,6.6,21.5h-9.9c0-7.4-1.1-11.2-3.9-14.5
				c-2.5-2.9-5.7-3.9-8.9-3.9c-3.9,0-7.1,1.2-9.4,3.7c-2.8,2.9-3.9,7.6-3.9,11.7c0,3.3,0.5,6.3,1.8,8.6c1.2,2.5,4.3,4.9,8.3,7.4
				l11.2,7c5.9,3.7,9.8,7.2,12.3,11.7s3.6,10,3.6,15.7C2524.3,1017.7,2521.4,1024.5,2517.2,1029.2z"/>
			<path class="st2" d="M2576.8,1029.2c-4.4,4.9-10.3,7.6-17.2,7.6s-12.4-2.5-16.5-7c-5.1-5.9-7.1-13.1-7.1-21.5h9.9
				c0,6.3,1.2,11,4.6,14.7c2.5,2.7,5.7,4.1,9.1,4.1c4.3,0,7.6-1.6,10.3-4.5c2.7-2.9,4.1-7.2,4.1-12.3c0-4.1-0.7-7.6-2.5-10.8
				c-2-3.3-4.8-6.1-9.1-8.6L2551,984c-5.7-3.5-9.8-8-11.7-11.7c-1.8-3.7-2.5-7.6-2.5-12.5c0-7.6,2.8-14.1,7.1-18.8
				c4.1-4.5,9.8-6.9,16.2-6.9c6.7,0,12.1,2.2,16.2,6.7c4.4,4.9,6.6,11.9,6.6,21.5h-9.9c0-7.4-1.1-11.2-3.9-14.5
				c-2.5-2.9-5.7-3.9-8.9-3.9c-3.9,0-7.1,1.2-9.4,3.7c-2.8,2.9-3.9,7.6-3.9,11.7c0,3.3,0.5,6.3,1.8,8.6c1.2,2.5,4.3,4.9,8.3,7.4
				l11.2,7c5.9,3.7,9.8,7.2,12.3,11.7s3.6,10,3.6,15.7C2583.9,1017.7,2581.1,1024.5,2576.8,1029.2z"/>
			<path class="st2" d="M2637.9,1029c-3.9,5.3-9.4,7.8-16.7,7.8s-12.8-2.5-16.7-7.8c-5.5-7.2-6.7-20-6.7-43.5s1.2-36.2,6.7-43.5
				c3.9-5.3,9.4-8,16.7-8s12.8,2.7,16.7,8c5.5,7.2,6.7,20,6.7,43.5S2643.4,1021.8,2637.9,1029z M2630.1,948.4c-2-2.5-5-4.5-8.9-4.5
				s-7.1,2-9.1,4.5c-4.1,5.5-4.4,15.9-4.4,37.2s0.4,31.5,4.4,37c2,2.5,5.1,4.5,9.1,4.5s6.9-2,8.9-4.5c4.1-5.5,4.6-15.7,4.6-37
				S2634.2,953.8,2630.1,948.4z"/>
			<path class="st2" d="M2699.9,1030.4c-3.9,4.5-9.4,6.5-16,6.5c-6.7,0-12.8-2.5-16.7-7.8c-5.5-7.2-6.7-20-6.7-43.5
				s1.2-36.2,6.7-43.5c3.9-5.3,9.9-8,16.7-8c6.9,0,12.1,1.6,16,6.1c5.3,5.9,6.2,13.9,6.4,21.9h-9.8c0-4.9-0.4-10.2-3.6-14.1
				c-2.3-2.7-5-4.1-8.9-4.1s-7.3,2-9.2,4.5c-4.1,5.5-4.4,15.9-4.4,37.2s0.4,31.5,4.4,37c2,2.5,5.3,4.5,9.2,4.5
				c3.6,0,6.4-1.4,8.7-3.9c3.2-3.5,3.7-8.2,3.7-14.1h9.8C2706.1,1018.5,2704.3,1025.3,2699.9,1030.4z"/>
			<path class="st2" d="M2722.4,912.7v-14.1h12.8v14.1H2722.4z M2723.8,1035.3v-99.7h9.9v99.7H2723.8z"/>
			<path class="st2" d="M2787.6,1035.3v-9c-1.2,2.7-3.4,5.3-5,6.7c-2.8,2.3-5.9,3.9-10.8,3.9c-5.7,0-10.5-2.2-14.4-6.7
				c-3.4-3.9-5.9-11.7-5.9-22.5c0-9.4,2.5-17.4,7.6-22.5c4.4-4.5,9.6-6.7,17.8-6.7h10.3v-17.8c0-11-4.1-17-12.4-17
				c-3.6,0-6.2,1.6-8.2,3.7c-2.8,3.3-4.1,7.2-4.1,13.9h-9.9c0-7.4,1.4-14.9,6.6-20.6c3.7-4.1,9.1-6.7,15.6-6.7
				c7.1,0,12.6,2.2,16.2,6.3c4.1,4.7,6.2,11,6.2,20.8v74.2H2787.6L2787.6,1035.3z M2787.2,987.1h-9.9c-4.6,0-8,1.2-11,4.3
				c-3,3.3-4.8,9.4-4.8,16.1c0,11.9,3.9,19.6,12.6,19.6c8,0,13.1-7.6,13.1-18L2787.2,987.1L2787.2,987.1z"/>
			<path class="st2" d="M2828,1029c-4.4-4.5-6.7-11.2-6.7-20.4V945h-11v-8.6h11v-30h9.9v30h15.4v8.6h-15.4v63.6
				c0,11.9,5.7,16.8,16.2,16.8v9.8C2840.1,1035.3,2833.4,1034.5,2828,1029z"/>
			<path class="st2" d="M2860.5,912.7v-14.1h12.8v14.1H2860.5z M2862,1035.3v-99.7h9.9v99.7H2862z"/>
			<path class="st2" d="M2931.2,1029c-3.9,5.3-9.4,7.8-16.7,7.8c-7.3,0-12.8-2.5-16.7-7.8c-5.5-7.2-6.7-20-6.7-43.5
				s1.2-36.2,6.7-43.5c3.9-5.3,9.4-8,16.7-8c7.3,0,12.8,2.7,16.7,8c5.5,7.2,6.7,20,6.7,43.5S2936.7,1021.8,2931.2,1029z
				 M2923.4,948.4c-2-2.5-5-4.5-8.9-4.5s-7.1,2-9.1,4.5c-4.1,5.5-4.4,15.9-4.4,37.2s0.4,31.5,4.4,37c2,2.5,5.1,4.5,9.1,4.5
				s6.9-2,8.9-4.5c4.1-5.5,4.6-15.7,4.6-37S2927.5,953.8,2923.4,948.4z"/>
			<path class="st2" d="M2991.7,1035.3v-75c0-11-5.5-16.3-12.4-16.3s-12.6,5.3-12.6,16.3v75h-9.9v-99.7h9.8v8
				c1.1-2.2,3.6-4.9,5.1-6.1c2.8-2.2,6.2-3.5,10.3-3.5c6,0,10.5,2.5,14.2,6.9c3.6,4.1,5.5,9.6,5.5,19.6v74.8H2991.7z"/>
		</g>
	</g>
</g>
</svg>
