<svg width="197" height="40" viewBox="0 0 197 40" fill="none" xmlns="http://www.w3.org/2000/svg">
<g clip-path="url(#clip0_14271_1316)">
<path d="M196.098 28.9873C193.233 28.9873 190.368 28.9873 187.504 28.9873C187.335 28.9873 187.083 29.1139 187.041 28.8608C186.998 28.5232 186.956 28.1435 187.083 27.8059C187.083 27.7637 187.335 27.7637 187.462 27.7637C188.557 27.7637 189.063 27.2574 189.063 26.1603C189.063 23.0802 189.063 20 189.063 16.962C189.063 16.2447 189.02 15.5274 188.768 14.8101C188.431 13.924 187.925 13.2489 186.956 13.038C185.777 12.7848 184.134 13.6709 183.713 14.8101C183.628 14.9789 183.628 15.1899 183.628 15.3586C183.628 19.0295 183.628 22.7004 183.628 26.3291C183.628 27.2152 184.134 27.8059 185.061 27.7637C185.735 27.7215 185.524 28.1857 185.566 28.5232C185.65 28.9451 185.398 29.0295 185.061 29.0295C182.407 29.0295 179.753 29.0295 177.057 29.0295C176.677 29.0295 176.509 28.9451 176.551 28.5232C176.551 28.3966 176.551 28.27 176.551 28.1013C176.509 27.8481 176.593 27.8059 176.846 27.7637C178.194 27.7215 178.615 27.2574 178.615 25.9072C178.615 22.1941 178.615 18.4388 178.615 14.7257C178.615 14.6835 178.615 14.6413 178.615 14.557C178.615 13.3755 178.278 13.038 177.141 12.8692C176.93 12.827 176.635 12.9958 176.551 12.7426C176.467 12.3629 176.509 11.9831 176.551 11.6034C176.593 11.4346 176.804 11.519 176.972 11.519C178.32 11.4768 179.668 11.3924 181.016 11.0549C181.901 10.8439 182.702 10.4641 183.586 10C183.586 11.097 183.586 12.1519 183.586 13.3333C184.344 12.4051 185.061 11.6456 185.987 11.097C187.378 10.211 188.894 9.87342 190.495 10.2954C192.264 10.7173 193.191 12.0253 193.781 13.6287C194.118 14.5148 194.286 15.443 194.286 16.3713C194.286 19.5359 194.286 22.7004 194.286 25.9072C194.286 27.2152 194.623 27.8903 196.182 27.7637C196.098 28.1435 196.098 28.5654 196.098 28.9873Z" fill="#3E4E56"/>
<path d="M154.435 -4.22336e-05C155.53 0.421899 156.33 1.18139 156.583 2.36283C157.046 4.26156 155.867 6.24468 153.971 6.41346C152.623 6.54004 151.233 5.443 150.896 3.9662C150.517 2.19405 151.528 0.421899 153.002 0.0421519C153.002 0.0421519 153.044 -4.22336e-05 153.044 -0.0422363C153.508 -4.22336e-05 153.971 -4.22336e-05 154.435 -4.22336e-05Z" fill="#3E4E56"/>
<path d="M127.263 28.9873C125.41 28.9873 123.556 28.9873 121.703 28.9873C121.324 28.9873 121.197 28.903 121.281 28.5232C121.281 28.4388 121.281 28.3544 121.281 28.27C121.197 27.8481 121.366 27.6793 121.787 27.7637C122.419 27.8481 123.051 27.7215 123.64 27.384C124.314 27.0042 124.651 26.4135 124.651 25.654C124.651 19.7468 124.651 13.8819 124.651 7.97468C124.651 7.00422 123.514 5.44304 122.335 5.6962C122.292 5.6962 122.25 5.6962 122.166 5.6962C121.239 5.6962 121.281 5.6962 121.239 4.76793C121.239 4.47257 121.324 4.38818 121.618 4.38818C123.725 4.38818 125.789 4.38818 127.895 4.38818C129.538 4.38818 131.181 4.38818 132.782 4.38818C133.119 4.38818 133.245 4.43038 133.245 4.81012C133.245 5.6962 133.245 5.6962 132.318 5.6962C131.139 5.6962 130.212 6.66666 130.212 7.8481C130.212 10.3797 130.212 12.8692 130.212 15.4008C130.212 15.7384 130.296 15.865 130.633 15.865C133.667 15.865 136.657 15.865 139.691 15.865C140.112 15.865 140.154 15.7384 140.154 15.4008C140.154 12.9114 140.112 10.4219 140.154 7.97468C140.154 7.08861 139.733 6.45569 139.059 5.94937C138.637 5.61181 138.132 5.82278 137.626 5.73839C137.374 5.6962 137.037 5.86498 136.952 5.65401C136.826 5.31645 136.91 4.93671 136.91 4.55696C136.91 4.38818 137.079 4.47257 137.205 4.47257C140.996 4.47257 144.746 4.47257 148.537 4.47257C148.79 4.47257 148.832 4.55696 148.832 4.81012C148.874 5.78059 148.874 5.78059 147.905 5.82278C146.852 5.82278 145.883 6.79325 145.883 7.8481C145.883 13.8397 145.883 19.8312 145.883 25.8228C145.883 26.8776 146.852 27.8903 147.947 27.8903C148.032 27.8903 148.116 27.8903 148.2 27.8903C148.748 27.8059 148.874 28.0169 148.832 28.5232C148.832 28.9451 148.748 29.1139 148.284 29.1139C144.661 29.0717 141.039 29.1139 137.416 29.1139C136.994 29.1139 136.868 29.0295 136.91 28.6076C136.952 27.8903 136.91 27.8903 137.626 27.8903C138.3 27.8903 138.974 27.8059 139.48 27.2996C139.859 26.962 140.154 26.5401 140.154 25.9916C140.154 23.3333 140.154 20.6751 140.154 17.9747C140.154 17.6793 140.07 17.5949 139.775 17.5949C136.7 17.5949 133.624 17.5949 130.591 17.5949C130.254 17.5949 130.212 17.7215 130.212 18.0169C130.212 20.6329 130.212 23.2911 130.212 25.9072C130.212 26.8354 131.265 27.8059 132.318 27.8481C132.403 27.8481 132.487 27.8481 132.571 27.8481C133.077 27.7637 133.287 27.9325 133.245 28.481C133.203 28.903 133.161 29.0717 132.655 29.0717C130.886 28.9451 129.075 28.9873 127.263 28.9873Z" fill="#3E4E56"/>
<path d="M75.0691 17.0042C76.0801 15.7806 76.9648 14.6413 77.8915 13.5443C79.4923 11.6034 81.051 9.57806 82.736 7.72152C83.0309 7.42616 83.0731 7.04641 82.9046 6.70886C82.6518 6.20253 82.3569 5.73839 81.7671 5.6962C81.4301 5.65401 81.0931 5.6962 80.7561 5.6962C80.5455 5.6962 80.4612 5.65401 80.4612 5.40084C80.377 4.38818 80.377 4.38818 81.4301 4.38818C83.9156 4.38818 86.401 4.38818 88.9286 4.38818C89.392 4.38818 89.5605 4.55696 89.4762 4.9789C89.4762 5.0211 89.4762 5.06329 89.4762 5.14768C89.5605 5.56962 89.392 5.6962 88.9707 5.82278C87.6227 6.11814 86.5274 6.83544 85.6006 7.93249C84.042 9.78903 82.4412 11.6456 80.7982 13.4599C80.5876 13.7131 80.5455 13.8819 80.7561 14.1772C83.8735 18.3966 86.9065 22.6582 90.066 26.8354C90.4873 27.384 91.0349 27.6793 91.6668 27.7637C92.4251 27.8481 92.0881 28.3966 92.1302 28.7764C92.1723 29.1983 91.7932 29.0717 91.5826 29.0717C88.0439 29.0717 84.5053 29.0717 80.9667 29.0717C80.5876 29.0717 80.4191 29.0295 80.4191 28.5654C80.4612 27.8481 80.4191 27.8481 81.1353 27.8481C81.5986 27.8481 82.062 27.8903 82.5254 27.6793C83.1152 27.4262 83.2416 27.0464 82.9046 26.5401C80.9667 23.7975 79.0289 21.097 77.0911 18.3544C76.9226 18.1013 76.8384 18.1435 76.6699 18.3544C76.2065 18.9873 75.701 19.5781 75.2376 20.1688C75.1112 20.3376 75.0691 20.5063 75.0691 20.7173C75.0691 22.4051 75.0691 24.0928 75.0691 25.7806C75.0691 26.962 75.9537 27.8481 77.1333 27.8481C77.3439 27.8481 77.5545 27.8903 77.723 27.8481C78.2285 27.7637 78.397 27.9325 78.3549 28.4388C78.3549 28.903 78.2285 29.0717 77.723 29.0295C74.058 28.9873 70.3931 29.0295 66.7702 29.0295C66.3489 29.0295 66.2226 28.9451 66.2226 28.5232C66.2647 27.8481 66.2226 27.8059 66.9387 27.8481C67.6127 27.8903 68.2446 27.8059 68.7923 27.3418C69.2135 27.0042 69.4663 26.6245 69.4663 26.0759C69.4663 19.9156 69.4663 13.7553 69.4663 7.59493C69.4663 6.54008 68.6238 5.78059 67.6127 5.73839C67.4442 5.73839 67.2757 5.73839 67.1072 5.73839C66.1804 5.73839 66.0541 5.56962 66.2226 4.64135C66.2647 4.34599 66.4753 4.47257 66.6017 4.47257C67.8234 4.47257 69.045 4.47257 70.2246 4.47257C72.7521 4.47257 75.2797 4.47257 77.8073 4.47257C78.1864 4.47257 78.3128 4.55696 78.3128 4.9789C78.2707 5.78059 78.3128 5.78059 77.4703 5.78059C75.8273 5.78059 75.027 6.45569 75.027 8.10126C75.027 10.9705 75.0691 13.924 75.0691 17.0042Z" fill="#3E4E56"/>
<path d="M107.969 25.3164C108.096 25.443 108.18 25.5696 108.264 25.654C108.938 26.54 108.938 26.54 108.138 27.2995C107.295 28.1012 106.368 28.8185 105.189 29.0295C103.125 29.4514 101.65 28.481 101.145 26.4135C101.145 26.3713 101.145 26.2869 101.103 26.1603C100.429 26.8776 99.7547 27.5527 98.9964 28.1012C98.1118 28.6919 97.185 29.1561 96.0897 29.1561C93.7728 29.1561 91.7086 27.0042 91.5822 24.6835C91.4979 22.5738 92.5932 21.2236 94.1519 20.0421C96.0897 18.6076 98.2803 17.5949 100.555 16.7932C100.934 16.6666 101.103 16.4978 101.103 16.0337C101.061 15.1476 101.103 14.2616 101.103 13.4177C101.061 11.4346 99.3755 10.8438 97.9432 11.5189C97.2692 11.8565 96.7637 12.3206 96.8901 13.2067C96.9322 13.6286 96.8901 14.0506 96.8058 14.4725C96.5531 15.654 95.3314 16.3291 94.0676 16.0759C92.6353 15.7384 91.9192 14.3459 92.4668 12.7848C92.7196 12.0253 93.2251 11.4767 93.857 11.0548C95.1629 10.1687 96.5952 9.78899 98.1117 9.57801C99.4177 9.40924 100.724 9.32485 102.029 9.7046C104.431 10.4219 105.694 12.194 106.158 14.5569C106.284 15.1054 106.242 15.6118 106.242 16.1603C106.242 19.1139 106.242 22.0675 106.242 25.0211C106.242 25.4008 106.116 25.9071 106.621 26.0759C107.127 26.2447 107.506 25.9493 107.801 25.6118C107.843 25.4852 107.885 25.4008 107.969 25.3164ZM101.103 21.308C101.103 20.5063 101.103 19.7046 101.103 18.9451C101.103 18.3966 101.061 18.3544 100.555 18.6075C99.1228 19.2405 98.0275 20.2953 97.2692 21.6877C96.9322 22.3206 96.7637 22.9957 96.8058 23.713C96.8901 24.9367 98.196 26.1603 99.3755 25.7384C100.344 25.4008 101.103 24.3881 101.103 23.3333C101.103 22.6582 101.103 21.9831 101.103 21.308Z" fill="#3E4E56"/>
<path d="M168.21 26.2024C167.704 26.7509 167.199 27.2573 166.651 27.7214C165.682 28.4809 164.671 29.1138 163.408 29.156C160.754 29.2404 158.521 26.7087 158.732 24.0505C158.9 22.1518 160.037 21.0125 161.386 19.9999C163.323 18.5653 165.472 17.5948 167.747 16.7931C168.084 16.6666 168.21 16.54 168.21 16.1602C168.168 15.3163 168.168 14.4725 168.21 13.6286C168.21 12.7003 167.999 11.8986 167.115 11.4767C166.146 11.0547 165.261 11.2657 164.461 11.9408C164.124 12.2362 163.913 12.5315 163.955 13.0379C163.997 13.4176 163.997 13.7974 163.955 14.2193C163.787 15.5695 162.523 16.3712 161.133 16.118C159.532 15.7805 159.069 14.1349 159.574 12.7425C159.911 11.8564 160.585 11.2657 161.386 10.8016C162.86 9.95769 164.503 9.62014 166.188 9.49356C167.283 9.45136 168.421 9.45136 169.474 9.83111C171.749 10.7172 172.886 12.4471 173.223 14.7678C173.476 16.7087 173.307 18.6497 173.307 20.5906C173.349 22.1518 173.307 23.713 173.307 25.232C173.307 25.5273 173.265 25.9071 173.602 26.0758C173.981 26.2446 174.318 26.0758 174.613 25.8227C174.697 25.7383 174.782 25.6539 174.866 25.5695C174.992 25.4007 175.077 25.3585 175.245 25.5695C176.045 26.4978 176.088 26.6244 175.161 27.4682C174.276 28.2699 173.349 28.945 172.128 29.156C170.232 29.4514 168.884 28.6075 168.336 26.7509C168.294 26.54 168.252 26.4134 168.21 26.2024ZM168.21 21.3079C168.21 20.464 168.21 19.5779 168.21 18.7341C168.21 18.4387 168.168 18.3965 167.873 18.4809C167.115 18.7763 166.399 19.1982 165.851 19.7467C164.756 20.8438 163.913 22.0252 163.955 23.713C163.997 24.7678 165.261 26.118 166.483 25.6961C167.452 25.3585 168.21 24.3459 168.21 23.3332C168.21 22.6581 168.21 21.983 168.21 21.3079Z" fill="#3E4E56"/>
<path d="M59.1454 15.4007C60.0722 15.6961 60.8726 16.0337 61.5887 16.54C63.695 18.1012 64.3269 20.2531 64.1163 22.7847C63.9899 24.2615 63.6108 25.6539 62.684 26.7931C61.5887 28.1856 60.1143 28.9029 58.345 28.945C54.5958 28.9872 50.8465 28.945 47.0552 28.9872C46.7182 28.9872 46.5918 28.9029 46.5918 28.5231C46.5918 20.4218 46.5918 12.2784 46.5918 4.17711C46.5918 3.79737 46.7182 3.75517 47.0552 3.75517C50.0461 3.75517 53.0371 3.79737 55.9859 3.75517C58.5556 3.71298 60.2828 4.9788 61.5887 7.00412C63.2317 9.53576 62.3891 13.7974 59.1454 15.4007ZM48.7824 21.8142C48.7824 23.291 48.7824 24.7678 48.7824 26.2024C48.7824 26.5822 48.9087 26.6666 49.2457 26.6666C51.9418 26.6666 54.6379 26.6666 57.334 26.6666C58.5978 26.6666 59.6509 26.1602 60.4935 25.232C61.5045 24.1349 61.673 22.7425 61.6309 21.3079C61.5887 18.8607 59.7773 17.0463 57.334 17.0041C54.5958 16.9619 51.8576 17.0041 49.1615 17.0041C48.8666 17.0041 48.7824 17.0885 48.7824 17.3839C48.7824 18.8607 48.7824 20.3375 48.7824 21.8142ZM48.7824 10.4218C48.7824 11.6033 48.7824 12.8269 48.7824 14.0083C48.7824 14.4303 48.8666 14.5991 49.33 14.5991C51.1836 14.5569 52.995 14.5991 54.8485 14.5991C55.5226 14.5991 56.1545 14.5569 56.7863 14.4303C59.2718 13.9661 60.5777 12.0252 60.1143 9.57796C59.7773 7.848 58.0501 6.28682 56.4493 6.28682C54.0481 6.28682 51.6469 6.28682 49.2457 6.28682C48.8245 6.28682 48.7824 6.4134 48.7824 6.79315C48.7824 7.93239 48.7824 9.15602 48.7824 10.4218Z" fill="#C63F34"/>
<path d="M20.9365 16.2447C20.9786 12.4894 22.1582 9.07167 24.8121 6.28686C27.1712 3.8396 30.0358 2.57378 33.448 2.86914C36.776 3.1223 39.3878 4.76787 41.4099 7.38391C43.0949 9.578 44.0217 12.0675 44.2745 14.8101C44.6536 18.9029 43.6426 22.5738 41.0307 25.6961C38.6717 28.481 35.6386 29.9577 31.9315 29.7046C28.9826 29.578 26.5393 28.27 24.6015 26.0759C22.0739 23.3333 20.9786 19.9999 20.9365 16.2447ZM41.6205 16.3291C41.6626 15.443 41.5784 14.5991 41.4099 13.7552C40.8622 11.0126 39.6827 8.64973 37.4921 6.87758C35.5543 5.3164 33.3638 4.72568 30.9204 5.3164C28.8141 5.82273 27.1712 7.08855 25.9495 8.8607C24.1381 11.4345 23.4641 14.3037 23.7169 17.3839C23.9275 20.1687 24.8543 22.7004 26.7499 24.7679C28.2665 26.4556 30.1622 27.4683 32.437 27.5527C35.0488 27.6371 37.1551 26.4556 38.798 24.5147C40.778 22.1518 41.6205 19.367 41.6205 16.3291Z" fill="#C63F34"/>
<path d="M116.479 21.6878C116.816 20.5907 117.153 19.5781 117.448 18.5654C117.996 16.7511 118.543 14.9367 119.133 13.1646C119.47 12.1097 118.796 11.3502 117.785 11.2658C117.743 11.2658 117.701 11.2658 117.701 11.2658C116.9 11.2658 116.774 11.0549 116.943 10.2532C116.985 10.0844 117.069 10.0422 117.237 10.0422C119.26 10.0422 121.324 10.0422 123.346 10.0422C123.514 10.0422 123.641 10.0844 123.599 10.2954C123.599 10.3797 123.599 10.5063 123.599 10.5907C123.641 11.0549 123.599 11.308 123.009 11.3924C122.082 11.5612 121.576 12.2785 121.282 13.1646C120.355 15.9072 119.428 18.6498 118.459 21.3924C116.816 26.0338 115.131 30.6751 113.109 35.1477C112.561 36.3291 112.056 37.5105 111.382 38.6498C111.171 39.0295 110.876 39.3671 110.539 39.6624C109.739 40.3797 108.812 40.4641 107.843 40.1688C106.874 39.8734 106.327 39.1139 106.243 38.1435C106.158 37.2152 106.664 36.5823 107.422 36.0759C107.97 35.6962 108.644 35.6118 109.276 35.443C110.455 35.1477 111.256 34.4304 111.719 33.3333C112.309 31.8987 112.898 30.4219 113.488 28.9873C113.572 28.7342 113.572 28.5654 113.488 28.3122C111.424 22.9958 109.36 17.6371 107.296 12.3207C107.043 11.6878 106.664 11.2236 105.906 11.2236C105.779 11.2236 105.695 11.1814 105.695 11.0127C105.695 10.9705 105.695 10.9283 105.695 10.9283C105.653 10 105.653 10 106.537 10C109.191 10 111.845 10 114.541 10C114.921 10 115.005 10.1266 115.005 10.4641C114.963 11.1814 115.005 11.1814 114.247 11.2236C114.078 11.2236 113.91 11.2658 113.741 11.308C113.193 11.4346 112.856 11.9409 113.067 12.4473C114.204 15.5274 115.342 18.5654 116.479 21.6878Z" fill="#3E4E56"/>
<path d="M15.7552 12.7426C15.7552 9.78903 15.7552 6.87764 15.7552 3.92405C15.7552 3.54431 15.8395 3.41772 16.2186 3.41772C16.7241 3.45992 17.2296 3.45992 17.7351 3.41772C18.0722 3.41772 18.1985 3.54431 18.1564 3.83967C18.1564 3.88186 18.1564 3.92405 18.1564 3.92405C18.1564 9.49367 18.1985 15.1055 18.1564 20.6751C18.1143 23.2489 17.2718 25.5696 15.4182 27.4262C14.1544 28.6498 12.5957 29.3249 10.9107 29.5781C8.84652 29.9578 6.82446 29.8734 4.88665 29.1139C2.14845 28.0591 0.589777 25.9494 -0.126369 23.1646C-0.337 22.3207 -0.463379 21.4346 -0.463379 20.5063C-0.463379 14.9789 -0.463379 9.45148 -0.463379 3.96625C-0.463379 3.54431 -0.337 3.41772 0.084262 3.45992C0.631903 3.50211 1.17954 3.50211 1.76931 3.45992C2.06419 3.45992 2.14845 3.54431 2.14845 3.83967C2.14845 3.96625 2.14845 4.09283 2.14845 4.17722C2.14845 9.66245 2.14845 15.1477 2.14845 20.6329C2.14845 21.5612 2.31695 22.4895 2.65396 23.3333C3.37011 25.2743 4.76027 26.4979 6.7402 27.0042C8.42525 27.4262 10.1103 27.384 11.7532 26.8354C14.1965 26.076 15.7552 23.9662 15.7973 21.3924C15.7973 21.1814 15.7973 20.9705 15.7973 20.8017C15.7552 18.1013 15.7552 15.443 15.7552 12.7426Z" fill="#C63F34"/>
<path d="M156.71 10.0422C156.71 10.2954 156.71 10.5064 156.71 10.6751C156.71 15.8228 156.71 21.0127 156.71 26.1604C156.71 27.2996 157.131 27.7638 158.268 27.7638C158.563 27.7638 158.69 27.8481 158.647 28.1435C158.647 28.2701 158.647 28.3967 158.647 28.5654C158.69 28.903 158.563 29.0296 158.184 29.0296C155.488 29.0296 152.792 29.0296 150.096 29.0296C149.717 29.0296 149.548 28.9452 149.59 28.5232C149.632 27.8059 149.59 27.806 150.264 27.806C151.065 27.806 151.697 27.173 151.697 26.3292C151.697 25.4009 151.697 24.4304 151.697 23.5022C151.697 20.422 151.697 17.384 151.697 14.3038C151.697 13.5865 151.402 13.2068 150.812 13.0802C150.517 13.038 150.264 12.9536 149.969 12.9958C149.632 12.9958 149.59 12.8692 149.59 12.5739C149.59 11.6456 149.59 11.6456 150.475 11.6034C152.244 11.519 153.971 11.3924 155.614 10.633C155.993 10.3798 156.288 10.211 156.71 10.0422Z" fill="#3E4E56"/>
</g>
<defs>
<clipPath id="clip0_14271_1316">
<rect width="196.098" height="40" fill="white"/>
</clipPath>
</defs>
</svg>
